<?xml version="1.0" standalone="no"?>
<!DOCTYPE svg PUBLIC "-//W3C//DTD SVG 20010904//EN"
 "http://www.w3.org/TR/2001/REC-SVG-20010904/DTD/svg10.dtd">
<svg version="1.0" xmlns="http://www.w3.org/2000/svg"
 width="1280.000000pt" height="1280.000000pt" viewBox="0 0 1280.000000 1280.000000"
 preserveAspectRatio="xMidYMid meet">
<metadata>
Created by potrace 1.15, written by Peter Selinger 2001-2017
</metadata>
<g transform="translate(0.000000,1280.000000) scale(0.100000,-0.100000)"
fill="#6340b5" stroke="none">
<path d="M6397 12640 c-5 -131 -10 -170 -27 -207 -106 -240 -472 -413 -872
-413 -262 0 -488 72 -608 195 -39 40 -44 53 -84 201 -24 90 -48 160 -56 162
-9 3 -11 -1 -7 -12 9 -24 48 -175 53 -206 2 -14 7 -50 10 -81 29 -262 -329
-585 -772 -696 -95 -24 -128 -27 -264 -27 -143 0 -161 2 -233 27 -129 45 -147
61 -239 223 -45 79 -85 141 -90 138 -5 -3 6 -31 23 -62 128 -223 145 -288 115
-424 -33 -150 -122 -293 -274 -440 -232 -225 -503 -351 -752 -350 -152 0 -171
9 -312 149 -65 65 -120 114 -124 110 -4 -3 41 -57 100 -119 130 -138 147 -175
153 -323 4 -83 0 -116 -20 -196 -110 -424 -546 -839 -887 -843 l-75 -1 -141
83 c-78 45 -144 82 -148 82 -21 0 3 -21 62 -55 221 -129 271 -185 313 -355 18
-76 16 -266 -5 -365 -78 -365 -305 -694 -558 -810 -93 -43 -126 -42 -294 4
-163 45 -164 45 -164 32 0 -4 28 -16 63 -26 223 -61 254 -74 310 -131 67 -66
129 -182 160 -296 19 -72 22 -108 22 -278 -1 -178 -3 -204 -27 -302 -57 -223
-136 -379 -252 -493 -110 -108 -130 -115 -330 -115 -91 0 -166 -4 -166 -8 0
-5 73 -12 161 -15 140 -6 168 -10 213 -30 304 -141 483 -705 370 -1165 -34
-138 -127 -298 -198 -340 -17 -11 -97 -37 -178 -58 -82 -21 -148 -44 -148 -50
0 -8 31 -3 87 13 102 29 151 36 249 37 64 1 79 -3 157 -42 307 -152 552 -627
534 -1037 -3 -83 -11 -129 -31 -188 -44 -130 -56 -144 -220 -238 -79 -46 -142
-87 -139 -92 2 -4 35 9 71 30 209 116 209 116 312 116 78 1 109 -4 169 -26
113 -40 223 -111 335 -218 246 -234 392 -534 389 -799 -2 -142 -13 -164 -150
-302 -65 -65 -114 -120 -110 -124 3 -4 57 41 119 100 134 126 174 146 314 153
411 24 959 -410 1040 -823 23 -117 16 -145 -76 -303 -44 -76 -80 -141 -80
-145 0 -22 24 4 56 61 107 191 165 250 289 294 384 135 1042 -142 1226 -516
58 -118 59 -144 10 -325 -36 -135 -43 -175 -26 -158 2 2 24 71 47 153 42 147
43 150 100 211 69 73 170 129 298 165 75 21 106 24 270 24 205 0 267 -9 426
-60 215 -70 367 -173 456 -309 l38 -59 0 -174 c0 -95 4 -173 8 -173 5 0 12 73
15 162 6 154 8 166 37 224 95 193 367 343 696 385 133 16 345 7 454 -21 120
-31 238 -90 305 -153 l56 -52 43 -159 c24 -92 48 -162 56 -164 9 -3 11 1 7 12
-9 24 -48 175 -53 206 -17 103 -16 140 4 206 29 94 86 177 190 275 142 135
326 232 552 292 105 28 130 30 275 31 150 1 165 -1 238 -27 131 -46 144 -58
238 -221 46 -79 87 -142 92 -139 4 2 -9 35 -30 71 -126 226 -139 277 -109 414
48 217 221 435 480 606 187 124 369 185 546 185 152 0 171 -10 312 -150 65
-65 120 -114 124 -110 4 3 -41 57 -100 119 -130 138 -147 175 -153 323 -4 83
0 116 21 198 109 423 546 837 886 841 l75 1 142 -83 c78 -45 144 -82 147 -82
21 0 -2 23 -51 50 -106 60 -218 138 -239 167 -70 95 -98 198 -97 363 0 100 5
147 26 231 86 353 300 657 540 769 101 48 131 48 306 1 135 -36 177 -43 160
-26 -3 2 -61 21 -129 41 -69 20 -139 40 -155 45 -83 24 -205 200 -246 356 -26
99 -36 331 -20 455 34 257 135 485 275 623 110 108 130 115 330 115 96 0 166
4 166 9 0 6 -74 11 -172 13 -159 3 -177 5 -222 27 -56 28 -165 126 -207 187
-129 188 -196 449 -186 729 8 250 69 426 187 546 l55 56 146 38 c81 21 153 41
160 46 30 18 -2 17 -72 -2 -41 -12 -92 -23 -114 -25 -22 -2 -67 -6 -100 -10
-158 -16 -363 124 -509 348 -211 324 -276 746 -153 996 35 73 49 85 214 178
67 38 118 73 114 77 -5 5 -47 -15 -94 -42 -47 -28 -91 -51 -97 -51 -6 0 -28
-11 -49 -24 -146 -93 -426 1 -650 218 -239 231 -383 525 -384 781 -1 156 6
170 146 312 66 68 118 126 114 129 -3 4 -57 -41 -119 -100 -130 -123 -174
-145 -304 -153 -218 -15 -477 93 -710 294 -213 185 -368 468 -351 645 3 35 23
79 85 187 45 77 82 142 82 145 0 24 -26 -7 -70 -81 -107 -182 -130 -208 -223
-251 -92 -44 -158 -56 -287 -55 -306 2 -634 143 -856 367 -73 74 -99 108 -134
178 -60 121 -61 150 -11 332 37 134 43 171 25 154 -5 -6 -54 -170 -77 -257
-16 -63 -107 -158 -195 -204 -37 -20 -108 -48 -157 -63 -84 -26 -103 -28 -280
-28 -210 -1 -270 7 -431 59 -215 70 -367 173 -456 309 l-38 59 0 174 c0 95 -4
173 -8 173 -5 0 -12 -72 -15 -160z m-32 -1105 c-65 -112 -196 -218 -341 -276
-132 -53 -247 -71 -409 -66 -226 7 -368 59 -485 177 l-65 65 -99 375 c-54 206
-101 382 -104 390 -2 8 8 3 24 -11 78 -71 214 -136 351 -167 110 -24 414 -24
531 2 285 61 510 196 600 361 16 28 17 7 20 -389 l2 -419 -25 -42z m148 757
c58 -60 191 -147 289 -189 182 -76 369 -108 588 -100 226 8 388 62 504 167
l55 51 -25 -93 c-149 -561 -186 -697 -197 -718 -18 -35 -117 -112 -192 -149
-101 -49 -210 -71 -353 -71 -183 0 -320 33 -477 114 -97 50 -220 165 -259 243
l-26 52 0 407 0 407 26 -39 c14 -21 45 -58 67 -82z m-1571 -491 c119 -446 116
-424 58 -546 -125 -260 -470 -456 -805 -457 -157 0 -310 47 -374 116 -22 23
-411 688 -406 694 1 1 27 -9 58 -23 165 -76 429 -72 674 10 205 69 366 165
499 299 71 72 99 109 132 175 23 46 42 94 42 107 0 13 3 24 8 24 4 0 55 -180
114 -399z m3100 240 c44 -74 196 -225 287 -285 225 -150 472 -229 706 -229
134 0 212 16 306 64 l58 29 -86 -148 c-47 -81 -141 -244 -210 -364 l-125 -216
-58 -31 c-389 -208 -1037 75 -1146 499 -15 58 -14 63 10 152 13 51 59 221 101
378 42 157 79 292 81 300 3 9 13 -8 25 -39 10 -30 33 -80 51 -110z m-4434
-828 c189 -327 192 -333 192 -390 -1 -260 -211 -541 -513 -688 -129 -62 -246
-88 -367 -82 -161 8 -141 -5 -462 315 -158 157 -286 287 -285 289 2 1 34 -3
72 -8 252 -40 623 124 875 387 155 161 243 329 257 489 l6 75 17 -27 c9 -16
103 -177 208 -360z m5852 171 c63 -190 265 -425 488 -569 221 -142 487 -209
645 -161 26 8 47 11 47 7 0 -3 -132 -138 -292 -298 -324 -322 -306 -309 -454
-320 -216 -15 -465 96 -656 295 -152 157 -223 309 -223 477 l0 90 200 344 200
344 12 -73 c7 -39 22 -101 33 -136z m-2904 -3 c105 -93 264 -165 430 -196 111
-21 338 -16 429 9 91 26 174 66 242 118 l61 47 -23 -87 c-207 -767 -196 -734
-283 -792 -98 -65 -140 -74 -327 -74 -157 0 -177 2 -260 28 -177 54 -311 137
-373 231 l-32 48 0 415 0 414 43 -58 c24 -33 66 -79 93 -103z m-182 -695 c-37
-111 -181 -211 -369 -257 -123 -31 -334 -31 -447 -1 -118 32 -228 97 -258 152
-10 18 -210 762 -210 780 0 7 21 -7 47 -30 56 -49 180 -111 273 -137 95 -26
386 -26 485 1 205 55 384 168 462 291 l28 45 3 -397 c2 -349 0 -403 -14 -447z
m1410 584 c103 -256 458 -480 787 -497 125 -7 217 7 312 47 37 15 67 27 67 26
0 -2 -88 -155 -195 -342 -129 -223 -208 -350 -232 -371 -116 -105 -348 -102
-578 6 -177 83 -315 204 -377 328 -37 76 -36 122 11 288 17 61 61 224 98 363
42 157 70 246 74 235 4 -10 19 -47 33 -83z m-2619 -302 c71 -265 100 -388 99
-424 -6 -231 -363 -463 -719 -467 -81 -1 -126 3 -169 16 -112 35 -108 31 -328
412 -111 193 -203 353 -205 357 -2 4 16 -4 39 -16 182 -99 474 -90 723 23 176
80 334 221 404 362 23 45 41 88 41 95 0 54 28 -33 115 -358z m3851 -313 c44
-132 124 -254 240 -365 121 -115 254 -195 404 -241 59 -19 99 -24 185 -24 61
0 126 3 145 8 31 6 2 -25 -245 -273 -333 -334 -334 -334 -482 -328 -85 3 -109
9 -178 39 -107 46 -184 99 -278 188 -141 134 -229 296 -231 421 l-1 65 205
353 205 352 7 -72 c5 -40 15 -95 24 -123z m-4990 -165 c103 -179 194 -347 202
-373 63 -216 -203 -524 -555 -643 -89 -30 -223 -38 -283 -17 -24 9 -123 101
-325 304 -253 253 -285 290 -255 282 19 -4 87 -8 150 -8 91 1 131 5 190 24
177 54 361 174 483 316 104 121 187 306 187 419 0 25 4 36 9 31 5 -6 94 -156
197 -335z m2426 141 c59 -83 226 -180 385 -222 99 -27 316 -37 405 -19 83 16
157 50 207 95 22 21 41 34 41 30 0 -7 -28 -114 -136 -510 -24 -88 -52 -171
-62 -185 -34 -46 -102 -90 -175 -112 -91 -29 -258 -30 -357 -4 -149 40 -272
123 -321 218 -23 42 -23 49 -24 395 0 194 2 353 5 353 3 0 17 -18 32 -39z
m-83 -717 c-24 -52 -104 -126 -170 -160 -68 -34 -177 -62 -273 -70 -154 -12
-322 40 -398 124 -40 44 -36 33 -138 417 -39 149 -74 278 -76 288 -4 12 11 6
52 -23 175 -122 515 -142 762 -44 116 46 214 123 245 192 10 21 13 -48 15
-328 2 -341 2 -355 -19 -396z m-3630 107 c7 -20 15 -77 18 -126 14 -223 -93
-463 -291 -653 -130 -125 -255 -195 -397 -223 -129 -25 -137 -23 -517 197
l-343 199 53 8 c359 55 718 393 860 810 28 82 32 105 32 212 1 66 -3 138 -7
160 -8 38 6 25 286 -254 218 -217 297 -303 306 -330z m7910 534 c-37 -235 105
-580 341 -828 103 -109 174 -165 283 -222 93 -49 162 -71 259 -82 l68 -8 -163
-93 c-89 -51 -252 -144 -362 -208 l-200 -116 -80 6 c-255 16 -520 221 -660
509 -63 130 -88 245 -83 372 7 160 6 157 326 471 152 150 278 271 279 270 1
-1 -3 -33 -8 -71z m-3074 -146 c42 -66 151 -169 237 -223 238 -148 499 -192
661 -110 l49 24 -20 -33 c-11 -17 -88 -151 -172 -297 -84 -146 -161 -275 -172
-287 -58 -63 -221 -90 -363 -58 -235 52 -455 250 -455 408 0 18 22 113 49 212
26 99 65 243 86 320 21 77 40 144 43 149 3 5 11 -6 18 -26 6 -19 24 -55 39
-79z m-2196 -241 c86 -318 91 -340 81 -385 -16 -69 -50 -121 -125 -191 -119
-111 -288 -177 -455 -176 -109 1 -187 25 -236 73 -22 22 -345 568 -362 612 -2
5 16 0 40 -11 63 -28 180 -43 266 -36 179 17 398 100 525 201 70 56 140 148
158 209 7 25 14 44 15 43 1 -1 43 -154 93 -339z m3230 -285 c97 -192 313 -380
516 -448 70 -24 92 -27 178 -23 l98 4 -238 -239 c-131 -131 -250 -245 -265
-253 -148 -78 -391 4 -565 189 -107 115 -166 275 -135 366 6 17 86 161 179
321 l168 291 17 -75 c10 -42 31 -101 47 -133z m-3996 -473 c0 -84 -28 -155
-93 -242 -156 -207 -455 -323 -617 -239 -21 11 -146 128 -278 261 l-240 241
70 -6 c270 -25 664 223 772 485 12 30 25 81 29 113 l7 57 175 -302 176 -303
-1 -65z m5428 573 c-18 -62 -13 -211 8 -295 94 -367 400 -665 726 -706 l59 -7
-319 -185 c-363 -209 -375 -215 -432 -225 -51 -8 -146 15 -214 52 -256 139
-468 528 -419 768 l12 60 291 292 c160 161 293 291 295 289 2 -2 -1 -21 -7
-43z m-6696 -568 c34 -70 39 -127 21 -215 -61 -295 -399 -621 -646 -623 l-65
-1 -351 205 -352 204 63 7 c307 32 612 300 726 638 29 84 32 108 33 210 1 63
-2 131 -7 150 -6 31 25 2 273 -245 211 -210 287 -292 305 -330z m3252 332
c220 -115 502 -111 660 9 18 14 33 21 33 16 0 -5 -15 -64 -34 -133 -18 -68
-57 -212 -85 -319 -51 -189 -53 -196 -92 -232 -79 -73 -216 -102 -348 -74
-141 30 -259 104 -300 189 -20 41 -21 59 -21 377 l0 333 60 -65 c39 -44 82
-77 127 -101z m-207 -191 l0 -344 -32 -48 c-68 -99 -196 -155 -354 -156 -99 0
-172 17 -238 56 -78 46 -79 49 -171 391 -47 176 -85 323 -85 327 0 5 20 -7 45
-26 74 -57 206 -96 326 -96 90 0 220 30 305 69 83 39 178 115 189 152 4 10 8
19 11 19 2 0 4 -155 4 -344z m1070 21 c182 -169 491 -238 659 -147 18 9 -86
-180 -284 -515 -54 -92 -97 -117 -211 -123 -94 -5 -166 12 -259 61 -108 58
-211 183 -216 264 -2 25 31 162 90 373 10 36 31 110 45 165 15 55 29 106 32
114 2 7 20 -19 40 -57 25 -52 54 -89 104 -135z m-1941 68 c18 -66 57 -212 88
-325 l55 -204 -16 -53 c-53 -167 -301 -295 -507 -262 -121 19 -124 22 -309
344 -91 158 -166 291 -168 296 -2 4 14 0 35 -10 156 -75 404 -34 595 97 65 45
136 126 165 188 14 30 26 54 28 52 2 -2 17 -57 34 -123z m2667 -325 c45 -159
212 -332 392 -405 84 -34 180 -49 236 -37 25 5 46 7 46 3 0 -3 -107 -113 -237
-243 -265 -264 -269 -266 -388 -254 -132 13 -304 137 -368 265 -37 74 -54 155
-40 192 6 15 85 156 175 311 138 240 163 278 166 253 2 -16 10 -55 18 -85z
m-3363 -210 l159 -275 -5 -66 c-5 -84 -42 -154 -119 -230 -126 -124 -321 -182
-433 -130 -25 12 -125 104 -270 250 l-230 231 67 -7 c90 -8 175 10 275 58 192
92 347 273 368 431 6 44 9 48 18 32 6 -10 82 -143 170 -294z m4601 237 c-8
-75 14 -197 52 -292 56 -139 178 -305 287 -391 86 -68 155 -101 241 -116 l69
-13 -303 -174 -303 -175 -63 1 c-229 2 -504 317 -504 576 0 119 0 119 274 395
137 138 252 252 253 252 2 0 1 -29 -3 -63z m-7854 -172 c179 -103 330 -192
337 -198 6 -7 26 -41 43 -75 132 -268 35 -692 -217 -949 -101 -104 -242 -181
-336 -184 -32 -1 -594 141 -781 198 -15 4 -4 11 42 29 223 84 445 352 553 671
45 133 62 236 63 368 0 135 -16 213 -65 308 l-30 59 33 -20 c18 -11 179 -104
358 -207z m2316 -294 c40 -93 23 -217 -48 -355 -59 -114 -183 -238 -292 -291
-70 -35 -86 -39 -155 -40 l-76 0 -302 175 -302 175 70 16 c136 32 269 117 393
250 164 177 246 391 213 554 -8 38 2 30 238 -205 144 -143 252 -259 261 -279z
m7700 448 c-148 -322 11 -902 327 -1196 79 -73 138 -110 227 -140 38 -13 59
-24 50 -27 -8 -3 -190 -53 -404 -110 l-389 -104 -51 15 c-185 54 -340 199
-447 418 -81 167 -115 343 -98 502 12 117 47 213 101 282 16 21 698 423 706
416 1 -1 -9 -26 -22 -56z m-5036 -271 c160 -93 383 -98 509 -12 19 13 37 22
39 19 2 -2 -10 -55 -27 -117 -17 -62 -40 -147 -51 -188 -111 -412 -96 -381
-200 -421 -44 -17 -71 -20 -136 -17 -100 5 -172 37 -233 103 l-41 45 0 355 0
356 48 -48 c26 -27 67 -60 92 -75z m-160 -248 l0 -350 -36 -40 c-70 -77 -202
-119 -312 -99 -113 21 -162 62 -185 154 -9 33 -47 178 -86 323 -39 145 -71
268 -71 273 0 5 18 -2 39 -16 72 -45 157 -67 256 -67 153 0 262 38 343 122 26
27 48 49 50 49 1 1 2 -156 2 -349z m809 155 c49 -65 155 -138 246 -170 84 -29
207 -34 275 -10 24 8 44 14 45 13 1 -2 -76 -138 -171 -303 -190 -328 -182
-319 -286 -331 -114 -13 -257 52 -318 144 -52 79 -56 45 51 442 21 80 48 181
60 225 31 117 29 114 45 75 8 -19 32 -57 53 -85z m-1434 -235 c61 -230 85
-337 81 -356 -18 -69 -99 -150 -191 -189 -61 -25 -170 -29 -229 -8 l-48 18
-175 303 c-96 167 -173 305 -171 307 2 2 24 -3 48 -12 56 -19 178 -21 250 -4
136 33 288 143 320 234 8 20 17 37 20 37 4 0 46 -148 95 -330z m5073 173 c-87
-179 -83 -416 12 -660 86 -224 272 -423 454 -484 30 -11 45 -20 36 -23 -8 -3
-179 -49 -380 -102 -259 -69 -380 -97 -418 -96 -177 3 -362 219 -439 512 -35
131 -37 308 -6 393 12 31 31 70 41 84 12 17 158 108 369 229 191 112 351 203
354 203 3 1 -7 -25 -23 -56z m-8555 -139 c177 -103 337 -197 355 -211 74 -56
120 -193 106 -322 -26 -256 -204 -552 -394 -655 -91 -50 -108 -48 -480 53
-184 49 -357 95 -383 102 -53 13 -52 21 8 39 70 21 173 89 244 159 260 260
365 691 236 969 -13 28 -22 52 -19 52 2 0 150 -84 327 -186z m6599 29 c-11
-198 119 -429 312 -554 51 -34 88 -49 195 -78 19 -6 -26 -35 -269 -175 l-291
-168 -58 4 c-153 11 -310 160 -365 347 -18 62 -21 157 -6 198 6 15 118 135
248 266 130 130 237 237 238 237 0 0 -1 -35 -4 -77z m-4472 -443 c56 -201
-138 -476 -366 -519 -28 -6 -62 -7 -75 -4 -13 3 -154 81 -312 172 l-288 166
49 7 c195 29 396 211 480 436 20 53 25 86 26 160 l1 92 237 -237 c180 -180
241 -247 248 -273z m3399 394 c1 -35 67 -156 116 -211 94 -107 245 -179 360
-171 30 1 55 1 55 -2 0 -3 -109 -114 -242 -247 -275 -274 -268 -270 -389 -239
-134 35 -235 137 -259 264 l-8 47 176 306 c173 298 189 320 191 253z m-2620
-268 l173 -299 -12 -45 c-26 -105 -97 -190 -198 -238 -45 -22 -72 -28 -129
-28 l-73 -1 -250 250 c-137 137 -250 252 -250 255 0 3 35 5 78 5 94 0 171 23
254 77 121 78 204 192 216 294 2 25 8 42 12 37 4 -4 85 -143 179 -307z m-2164
-140 c167 -97 282 -169 301 -191 80 -91 86 -293 12 -468 -55 -131 -159 -254
-258 -303 -82 -41 -130 -38 -360 25 -107 29 -244 67 -305 83 -60 16 -116 31
-124 34 -7 2 18 20 55 39 90 45 154 101 226 199 177 238 243 541 155 717 l-23
48 25 -14 c14 -7 148 -83 296 -169z m7064 140 c-118 -267 64 -791 320 -921 19
-9 49 -22 68 -29 34 -12 34 -12 -69 -39 -57 -15 -210 -56 -341 -91 l-238 -65
-55 15 c-71 18 -118 49 -185 121 -169 183 -227 486 -125 654 30 50 41 58 331
225 165 96 303 174 307 174 4 0 -2 -20 -13 -44z m-3578 -129 c90 -55 252 -62
347 -14 28 14 52 23 52 18 0 -4 -7 -30 -14 -57 -8 -27 -25 -85 -36 -129 -179
-668 -163 -625 -245 -665 -55 -27 -84 -25 -130 6 -80 54 -74 18 -75 499 l0
429 38 -35 c20 -20 49 -43 63 -52z m-151 -790 c-39 -53 -77 -77 -123 -77 -37
0 -109 30 -122 50 -6 10 -36 112 -75 260 -12 47 -30 114 -40 150 -10 36 -28
103 -40 150 -12 47 -30 114 -40 150 -10 36 -21 77 -24 92 l-6 27 47 -24 c130
-68 298 -47 410 50 l38 33 3 -410 2 -410 -30 -41z m-455 648 c20 -77 45 -169
55 -205 10 -36 41 -152 70 -257 l51 -193 -21 -47 c-42 -96 -93 -124 -184 -100
l-48 12 -214 370 c-117 203 -212 371 -210 372 1 1 20 -2 42 -8 59 -17 162 -6
227 24 78 35 122 71 159 128 17 27 32 48 33 46 2 -1 19 -65 40 -142z m1049
118 c62 -121 258 -208 392 -174 25 7 48 11 49 9 3 -4 -379 -665 -405 -699 -19
-27 -94 -59 -137 -59 -40 0 -83 29 -112 76 -24 36 -27 50 -21 77 4 17 45 169
90 337 120 446 120 444 120 453 0 14 10 6 24 -20z m1440 -190 c53 -158 196
-296 341 -328 l50 -11 -25 -16 c-14 -9 -147 -86 -296 -172 -302 -174 -307
-175 -401 -132 -68 32 -132 97 -169 172 -24 49 -29 72 -29 131 l0 73 250 250
250 250 5 -82 c3 -46 14 -106 24 -135z m-3704 -38 l245 -245 -1 -74 c0 -59 -6
-84 -28 -129 -56 -114 -178 -203 -269 -195 -33 2 -107 41 -334 173 -161 93
-293 173 -293 177 0 5 15 8 34 8 18 0 66 16 107 37 101 50 194 144 245 248 36
73 39 86 39 162 0 46 2 83 5 83 3 0 115 -110 250 -245z m2783 -73 c64 -97 173
-166 285 -179 l63 -8 -293 -291 -293 -292 -56 -6 c-58 -7 -100 3 -132 32 -22
20 -46 74 -49 111 -2 22 161 314 420 756 3 5 11 -12 18 -39 7 -26 23 -64 37
-84z m-3755 -87 c225 -129 244 -143 263 -181 69 -144 19 -361 -115 -499 -57
-57 -141 -105 -188 -105 -15 0 -111 23 -215 51 -103 27 -228 61 -278 74 -129
35 -183 53 -161 54 40 2 139 66 196 127 67 72 119 159 157 265 23 65 27 90 27
199 1 109 -2 131 -21 173 l-22 48 57 -33 c32 -18 167 -96 300 -173z m1871
-151 c203 -355 204 -355 198 -404 -12 -99 -51 -139 -144 -147 l-58 -5 -303
305 -304 304 62 6 c114 12 217 75 280 170 22 32 42 74 46 93 3 19 9 34 13 34
3 -1 98 -161 210 -356z m3840 319 c-92 -187 -7 -512 180 -686 28 -27 77 -60
108 -74 l57 -26 -89 -24 c-50 -13 -198 -53 -330 -88 -191 -52 -246 -63 -270
-56 -58 16 -111 49 -157 99 -86 92 -132 214 -131 354 0 75 3 94 29 145 l29 58
290 167 c160 92 293 168 296 168 4 0 -2 -17 -12 -37z m-8529 -238 c157 -43
332 -90 390 -105 102 -28 106 -30 157 -85 58 -64 114 -169 140 -265 26 -95 26
-365 -1 -470 -24 -93 -64 -194 -108 -268 -46 -78 -161 -192 -227 -225 l-55
-27 -404 0 -405 0 44 31 c163 116 284 329 346 611 28 127 25 443 -5 553 -30
111 -83 214 -145 281 -34 37 -45 55 -32 51 11 -3 148 -40 305 -82z m11262 18
c-115 -139 -172 -334 -172 -585 0 -261 68 -509 190 -688 44 -64 141 -159 190
-186 35 -19 33 -19 -378 -22 l-412 -2 -48 24 c-137 70 -254 232 -318 442 -25
82 -28 103 -28 269 -1 145 3 192 17 245 31 110 83 206 150 276 l62 65 385 104
c212 57 389 104 393 104 5 1 -9 -20 -31 -46z m-6611 -678 c16 -58 6 -123 -24
-152 -14 -14 -49 -33 -78 -43 l-54 -18 -40 24 c-22 13 -190 110 -373 216
l-333 192 56 17 c132 41 239 177 252 320 l6 61 289 -289 c241 -240 290 -295
299 -328z m2323 440 c47 -102 119 -170 218 -204 l52 -18 -69 -40 c-39 -22
-200 -116 -360 -208 l-289 -167 -51 7 c-97 12 -145 64 -145 157 0 43 0 43 303
346 l302 302 7 -60 c4 -34 18 -85 32 -115z m922 87 c-38 -108 -25 -254 35
-380 38 -79 135 -182 192 -202 20 -8 37 -16 37 -20 0 -3 -151 -45 -336 -94
l-337 -90 -54 29 c-61 32 -112 88 -145 161 -18 39 -23 67 -23 139 0 138 -11
127 340 329 165 95 301 172 303 171 1 -1 -4 -20 -12 -43z m-4436 -168 c239
-138 245 -143 262 -185 34 -89 15 -209 -49 -306 -33 -51 -106 -108 -149 -119
-19 -5 -165 31 -474 116 -36 10 -102 28 -148 40 l-83 23 31 14 c96 40 207 164
250 280 41 111 43 237 5 327 -10 22 -35 35 355 -190z m-2810 127 c74 -21 231
-63 505 -136 77 -20 159 -48 183 -62 105 -60 162 -200 163 -398 0 -60 -7 -144
-15 -185 -36 -188 -130 -364 -234 -443 l-55 -42 -426 -2 -426 -2 40 21 c91 48
202 187 267 333 58 131 73 214 73 405 0 156 -3 183 -23 250 -31 96 -70 173
-122 239 -30 37 -37 51 -24 48 11 -3 53 -15 94 -26z m9778 -29 c-50 -52 -87
-114 -118 -202 -41 -112 -53 -208 -47 -367 6 -156 28 -252 83 -371 58 -127
113 -194 244 -302 l25 -20 -410 2 -410 3 -54 30 c-103 57 -180 177 -223 350
-30 124 -30 334 0 448 38 141 118 256 189 273 16 4 190 51 388 104 198 53 362
95 364 93 3 -2 -11 -20 -31 -41z m-4940 -897 l-3 -267 -129 483 c-71 266 -131
492 -133 501 -5 15 -1 15 33 -3 77 -39 151 -21 209 51 l20 25 3 -262 c1 -144
1 -382 0 -528z m62 740 c47 -51 131 -57 191 -15 16 12 33 20 36 17 3 -3 -15
-82 -40 -174 -25 -92 -80 -296 -122 -453 -42 -157 -83 -305 -90 -330 -12 -39
-14 22 -14 468 -1 281 3 512 7 512 5 0 19 -11 32 -25z m-255 -380 c54 -203
111 -417 127 -475 44 -163 43 -161 20 -124 -31 48 -482 832 -488 848 -5 12 2
13 38 4 29 -6 55 -6 80 1 40 12 94 68 104 107 4 14 10 22 14 17 4 -4 51 -174
105 -378z m-3747 325 c81 -22 181 -49 222 -60 293 -78 293 -78 337 -121 129
-127 148 -404 43 -635 -32 -71 -95 -144 -159 -186 l-45 -28 -360 0 -360 0 41
30 c57 42 116 122 162 221 133 283 125 635 -17 787 -17 18 -26 32 -21 32 6 0
76 -18 157 -40z m4286 -1 c43 -64 109 -83 189 -55 20 8 37 12 37 9 0 -7 -513
-893 -516 -891 -2 3 5 32 49 198 14 52 57 212 96 355 38 143 79 295 90 337 12
43 21 80 21 83 0 12 9 3 34 -36z m3757 -6 c-128 -161 -156 -504 -62 -761 44
-121 100 -199 191 -265 24 -17 13 -18 -333 -13 -407 7 -397 5 -472 88 -84 93
-132 224 -142 383 -9 159 34 299 120 383 l43 42 330 89 c181 49 335 90 342 90
7 1 0 -16 -17 -36z m-5484 -253 l351 -202 21 -48 c38 -89 22 -151 -54 -199
l-44 -28 -238 64 c-131 35 -287 77 -348 93 -60 17 -140 38 -177 47 -61 15 -90
33 -54 33 30 0 125 101 158 168 29 58 33 76 33 147 0 44 -4 93 -8 108 -4 16
-4 27 0 24 4 -2 166 -95 360 -207z m3146 188 c-4 -13 -8 -61 -8 -108 0 -71 5
-95 27 -142 37 -80 72 -123 130 -160 27 -18 46 -34 41 -35 -166 -48 -776 -205
-795 -205 -34 1 -97 33 -128 67 -20 22 -25 37 -24 78 1 93 -4 90 389 317 198
115 364 209 368 209 5 1 5 -9 0 -21z m-2093 -413 c133 -231 251 -436 263 -455
11 -19 -145 129 -347 330 l-366 365 43 6 c90 14 138 59 151 141 4 22 8 39 10
37 2 -2 113 -193 246 -424z m993 281 c21 -15 44 -21 88 -21 32 0 59 -1 59 -2
0 -3 -734 -732 -736 -730 0 1 93 164 208 362 115 198 229 396 255 439 l45 79
27 -53 c14 -30 39 -63 54 -74z m-3764 -22 c135 -36 277 -74 315 -84 82 -22
123 -57 160 -139 70 -156 23 -394 -101 -519 -72 -72 -67 -71 -434 -65 l-327 6
59 55 c44 40 70 76 99 136 57 116 74 190 74 326 1 137 -24 232 -79 304 -19 25
-30 46 -23 46 6 0 122 -30 257 -66z m6468 28 c-40 -42 -85 -149 -98 -232 -32
-205 30 -429 153 -553 32 -32 58 -59 58 -60 0 -1 -156 0 -347 3 -339 5 -349 6
-379 27 -142 101 -193 364 -108 554 49 108 51 109 410 205 175 47 321 87 323
90 2 2 7 2 9 -1 3 -3 -6 -18 -21 -33z m-3807 -418 c207 -209 359 -368 339
-357 -20 11 -221 128 -448 258 l-412 238 53 26 c73 37 93 67 93 147 0 35 0 64
0 64 0 0 169 -169 375 -376z m1265 294 c9 -67 43 -103 115 -125 l58 -18 -391
-225 c-215 -124 -418 -240 -452 -259 -54 -30 -25 2 300 328 198 199 361 358
362 354 1 -5 4 -29 8 -55z m-3060 -137 c39 -10 108 -29 155 -41 47 -13 91 -28
99 -34 8 -6 27 -38 43 -71 23 -50 28 -73 28 -137 0 -109 -27 -178 -96 -245
l-54 -53 -355 0 -355 0 52 53 c88 87 147 238 148 372 0 70 -25 161 -60 218
-17 27 -30 50 -30 51 0 2 80 -19 178 -45 97 -27 209 -57 247 -68z m4896 68
c-50 -68 -75 -160 -75 -269 0 -149 40 -258 126 -341 l40 -39 -350 0 -351 0
-34 29 c-46 41 -83 114 -98 193 -10 57 -10 76 4 135 10 37 29 86 45 107 l27
39 340 92 c187 51 343 93 348 94 4 0 -6 -17 -22 -40z m-2989 -478 c130 -75
235 -137 234 -138 -1 -1 -94 23 -206 53 -113 30 -290 77 -395 105 -104 28
-219 59 -255 69 -36 10 -77 21 -92 24 -36 8 -35 17 3 40 64 38 84 110 55 194
l-15 40 217 -125 c119 -69 324 -186 454 -262z m1316 339 c-21 -80 17 -155 96
-191 l39 -17 -39 -11 c-157 -42 -595 -159 -766 -205 -114 -31 -210 -56 -215
-56 -5 0 883 517 893 520 1 0 -3 -18 -8 -40z m-2731 -61 c254 -68 348 -93 476
-128 117 -31 145 -50 178 -113 26 -50 24 -88 -7 -133 -54 -80 -18 -74 -498
-75 l-429 0 42 45 c68 74 85 122 86 245 0 93 -3 111 -26 158 -14 28 -22 52
-18 52 4 0 92 -23 196 -51z m3669 -20 c-26 -52 -30 -72 -30 -142 -1 -98 21
-164 76 -237 l38 -50 -413 0 -413 0 -41 30 c-55 40 -79 98 -62 149 10 29 28
66 46 90 4 5 792 218 814 220 12 1 10 -11 -15 -60z m-2871 -194 c77 -21 203
-55 280 -75 77 -21 228 -61 335 -90 107 -28 204 -55 215 -60 12 -5 -193 -9
-492 -9 -282 -1 -513 3 -513 7 0 5 9 17 21 28 58 52 64 126 18 198 -16 27 -24
46 -17 44 7 -3 76 -22 153 -43z m2030 8 c-32 -74 -36 -99 -26 -134 6 -19 27
-52 48 -72 l36 -37 -514 1 c-283 1 -507 3 -499 6 116 33 939 252 949 252 9 1
11 -5 6 -16z m-6186 -304 c133 -89 246 -263 293 -454 30 -121 32 -363 4 -470
-37 -140 -107 -263 -186 -325 -33 -26 -93 -45 -424 -133 -212 -57 -386 -101
-386 -99 0 2 18 25 41 50 188 214 223 701 77 1072 -61 156 -175 308 -275 367
-24 14 -43 27 -43 29 0 2 188 4 419 4 l419 0 61 -41z m823 25 c122 -41 225
-198 264 -402 18 -96 18 -298 -1 -386 -25 -120 -90 -238 -154 -278 -14 -9
-172 -55 -351 -103 -414 -111 -430 -115 -435 -115 -3 0 15 26 39 58 57 73 102
163 128 260 18 64 22 104 22 242 0 148 -3 175 -27 264 -50 187 -142 335 -265
429 l-63 47 399 0 c334 0 406 -3 444 -16z m775 -5 c131 -63 225 -266 226 -484
0 -121 -20 -208 -67 -285 -60 -97 -64 -99 -436 -198 -184 -49 -336 -88 -338
-87 -2 2 12 24 31 49 71 92 108 237 108 420 0 153 -26 278 -80 390 -47 97 -89
149 -150 187 l-45 29 354 0 c338 0 356 -1 397 -21z m745 -8 c51 -32 101 -98
132 -175 17 -42 20 -73 21 -182 l0 -130 -38 -77 c-21 -42 -50 -85 -65 -96 -16
-11 -161 -55 -332 -101 -168 -45 -313 -84 -323 -87 -14 -4 -11 7 17 46 95 139
118 346 60 542 -34 113 -110 229 -178 270 -31 19 -27 19 315 19 l345 0 46 -29z
m748 -7 c114 -103 136 -331 42 -443 -26 -32 -42 -37 -362 -122 -184 -49 -339
-89 -343 -89 -5 0 3 13 16 30 46 54 70 135 75 251 6 159 -34 277 -125 365
l-45 44 351 0 351 0 40 -36z m860 10 c73 -49 97 -116 66 -187 -28 -65 -23 -63
-451 -177 -225 -60 -411 -108 -412 -106 -2 2 9 25 24 52 26 45 28 58 28 154 0
92 -3 112 -26 160 -14 31 -41 73 -59 93 l-32 37 411 0 411 0 40 -26z m1049 22
c-2 -3 -218 -61 -479 -131 -261 -69 -483 -129 -493 -131 -17 -5 -17 -3 2 35
40 77 23 150 -50 210 l-24 20 524 1 c288 0 522 -2 520 -4z m1219 -33 c-59 -64
-64 -124 -17 -197 22 -36 26 -47 13 -42 -13 5 -377 104 -669 181 -138 37 -281
76 -290 80 -5 2 215 4 489 4 l500 1 -26 -27z m877 -14 c-64 -71 -80 -119 -80
-239 0 -93 3 -111 26 -158 31 -63 43 -61 -111 -19 -52 14 -138 37 -190 51
-520 140 -490 128 -531 208 -32 63 -23 110 31 166 l32 32 430 0 430 0 -37 -41z
m735 -9 c-82 -84 -139 -235 -140 -365 0 -70 25 -161 60 -218 l30 -49 -32 7
c-18 4 -62 15 -98 25 -55 15 -239 65 -475 127 -76 20 -82 26 -117 98 -23 50
-28 73 -28 137 0 104 28 178 90 241 l47 47 356 0 356 0 -49 -50z m720 -6 c-45
-42 -70 -77 -100 -138 -58 -117 -74 -190 -75 -326 0 -137 25 -232 80 -304 19
-25 30 -46 25 -46 -6 0 -45 9 -88 21 -42 11 -185 49 -316 85 -272 72 -283 78
-331 186 -76 170 -12 433 134 544 l44 34 344 0 344 0 -61 -56z m793 26 c-162
-120 -284 -468 -253 -726 15 -128 42 -200 102 -276 16 -21 26 -38 22 -38 -4 0
-37 9 -73 19 -36 11 -154 42 -261 71 -325 86 -331 88 -374 128 -168 160 -145
582 43 767 90 88 68 84 475 85 l360 0 -41 -30z m907 27 c0 -2 -22 -18 -49 -35
-138 -90 -256 -288 -302 -507 -27 -127 -27 -323 0 -428 28 -106 66 -190 124
-265 30 -41 41 -61 30 -58 -29 9 -364 100 -562 152 -205 54 -251 77 -301 149
-179 260 -51 841 215 979 26 14 88 16 438 16 224 0 407 -1 407 -3z m824 -31
c-173 -117 -314 -396 -355 -702 -17 -127 -7 -359 20 -459 28 -105 80 -211 136
-273 25 -27 45 -52 45 -54 0 -3 -156 37 -347 89 -192 51 -370 98 -398 104 -95
21 -205 170 -252 339 -26 95 -26 365 1 470 24 93 64 194 108 268 46 78 161
192 227 225 l55 27 405 0 406 0 -51 -34z m-6069 5 c-16 -14 -866 -501 -875
-501 -5 0 -4 16 2 36 20 75 -15 143 -93 182 l-41 21 53 15 c30 8 225 61 434
117 209 56 409 110 445 119 77 22 87 23 75 11z m435 -51 c107 -29 224 -60 260
-70 36 -10 153 -41 260 -70 275 -73 251 -62 206 -90 -69 -42 -92 -111 -65
-189 6 -18 9 -34 7 -36 -3 -4 -318 176 -878 501 -31 18 -41 20 210 -46z m-770
-325 l-365 -365 -8 52 c-11 75 -44 113 -117 135 l-58 18 451 261 c249 144 454
262 457 263 3 1 -159 -163 -360 -364z m973 105 l439 -253 -53 -26 c-73 -36
-94 -68 -94 -142 0 -32 -2 -59 -5 -59 -3 0 -172 167 -375 371 -204 204 -365
369 -360 367 6 -3 207 -119 448 -258z m212 -492 c-86 -12 -129 -55 -152 -146
-8 -32 -17 -17 -243 374 -129 225 -248 431 -264 458 -22 41 47 -23 338 -314
l366 -365 -45 -7z m-1037 325 c-126 -219 -241 -418 -255 -442 l-25 -44 -27 54
c-36 73 -66 93 -141 94 -33 0 -60 2 -60 5 0 8 724 730 732 730 3 0 -97 -179
-224 -397z m442 -117 c71 -268 130 -489 130 -491 0 -2 -17 6 -37 16 -75 38
-154 20 -209 -48 l-23 -28 0 530 c0 292 2 526 5 520 2 -5 62 -230 134 -499z
m158 48 c127 -220 234 -408 237 -416 6 -14 1 -15 -36 -7 -23 6 -55 7 -71 4
-40 -9 -88 -52 -109 -99 -11 -26 -20 -35 -23 -26 -3 8 -53 195 -111 415 -59
220 -116 434 -127 475 -32 117 -32 118 -10 85 11 -16 124 -210 250 -431z
m-378 336 c-15 -58 -52 -193 -80 -300 -71 -263 -149 -553 -153 -564 -1 -4 -15
11 -31 34 -43 65 -108 84 -188 56 -21 -8 -38 -11 -38 -8 0 8 513 893 516 890
1 -2 -10 -50 -26 -108z m55 -908 c-3 -3 -18 6 -33 21 -64 61 -124 62 -213 3
l-27 -17 29 108 c69 253 90 333 165 613 l79 295 3 -509 c1 -280 0 -511 -3
-514z m1365 754 c52 -14 209 -56 348 -93 138 -37 252 -71 252 -75 0 -4 -6 -8
-14 -8 -30 0 -125 -101 -157 -166 -36 -73 -49 -172 -30 -238 6 -22 9 -41 8
-42 -1 -2 -163 90 -359 203 l-357 206 -20 48 c-40 91 -23 149 56 199 l43 27
67 -18 c38 -10 111 -29 163 -43z m-2430 24 c62 -32 85 -65 84 -123 0 -29 -7
-65 -15 -80 -11 -22 -99 -77 -378 -237 -201 -115 -366 -208 -368 -207 -1 2 2
21 8 43 17 59 6 162 -24 227 -35 78 -71 122 -129 159 l-49 32 43 12 c24 7 156
42 293 79 138 37 295 79 350 94 104 30 127 30 185 1z m-826 -239 c55 -38 101
-103 128 -179 25 -71 21 -183 -8 -231 -14 -24 -90 -72 -321 -205 -167 -96
-303 -173 -303 -171 0 1 7 22 16 46 20 55 23 186 5 259 -33 137 -143 288 -234
320 -20 8 -37 16 -37 20 0 12 636 179 672 175 20 -1 57 -17 82 -34z m3985 20
c36 -10 145 -40 241 -66 96 -25 216 -58 267 -72 l92 -25 -51 -26 c-103 -51
-205 -184 -244 -317 -21 -74 -22 -185 -1 -245 9 -24 15 -45 14 -46 -1 -2 -137
75 -302 171 -295 170 -300 174 -317 216 -47 121 12 310 120 382 82 55 86 55
181 28z m-681 -251 l353 -204 -56 -17 c-132 -41 -236 -172 -253 -319 l-7 -61
-292 293 c-283 285 -292 294 -298 340 -11 73 1 114 40 145 45 36 113 55 140
39 11 -7 179 -104 373 -216z m-2293 182 c39 -23 65 -75 65 -132 l0 -45 -304
-304 -303 -303 -6 60 c-6 67 -42 156 -83 205 -42 50 -117 103 -168 117 -26 7
-43 17 -39 21 5 5 164 99 353 209 l345 200 55 -5 c30 -3 68 -14 85 -23z
m-1725 -137 c56 -28 130 -106 163 -172 73 -143 81 -327 19 -428 -14 -22 -95
-74 -310 -198 -160 -92 -293 -167 -295 -167 -3 0 4 17 14 38 90 180 4 510
-176 681 -30 28 -81 64 -112 79 -32 14 -51 28 -43 30 8 2 155 41 325 87 211
57 320 82 340 78 17 -3 50 -16 75 -28z m5443 6 c39 -11 158 -43 262 -71 105
-28 214 -58 244 -65 58 -16 75 -25 47 -25 -10 0 -45 -14 -78 -32 -127 -68
-252 -248 -293 -425 -23 -98 -17 -239 13 -306 l22 -49 -38 22 c-20 12 -143 83
-272 157 -129 75 -250 147 -269 161 -38 28 -59 72 -71 146 -27 172 97 409 252
481 64 30 87 31 181 6z m-1704 -365 l303 -303 -60 -6 c-66 -5 -151 -40 -207
-83 -44 -33 -112 -135 -121 -180 -3 -19 -9 -34 -13 -34 -3 1 -98 161 -210 356
l-204 355 6 51 c12 96 66 148 157 148 l45 0 304 -304z m-1780 266 c30 -22 60
-78 62 -119 2 -20 -56 -128 -211 -396 l-213 -369 -18 56 c-40 131 -171 235
-317 253 l-62 8 289 289 c249 249 294 290 327 297 55 11 113 4 143 -19z
m-2656 -100 c42 -18 76 -44 123 -95 173 -187 233 -489 131 -658 -31 -50 -41
-57 -327 -222 -162 -93 -301 -171 -307 -174 -8 -3 -6 11 7 40 85 192 16 544
-153 773 -65 88 -140 145 -235 178 -33 12 -20 16 304 103 219 59 350 89 369
86 17 -3 56 -17 88 -31z m6827 14 c30 -8 141 -38 245 -66 105 -28 224 -60 265
-71 41 -11 81 -22 89 -24 7 -3 -20 -22 -60 -42 -204 -102 -385 -399 -414 -678
-8 -76 8 -176 38 -237 18 -36 20 -45 7 -38 -184 99 -582 338 -606 365 -127
143 -62 486 129 683 60 61 101 89 160 108 55 17 82 17 147 0z m-2981 -49 l44
-12 213 -370 c117 -203 212 -371 210 -372 -1 -1 -20 2 -42 8 -59 17 -162 6
-227 -24 -78 -35 -122 -71 -159 -128 -17 -27 -32 -48 -33 -46 -2 1 -19 65 -40
142 -20 77 -45 169 -55 205 -10 36 -27 101 -39 145 -12 44 -35 130 -52 192
l-30 112 21 48 c45 102 90 126 189 100z m-929 -12 c37 -19 80 -81 80 -116 0
-14 -13 -75 -30 -135 -53 -195 -67 -246 -120 -444 -73 -275 -62 -250 -88 -208
-34 54 -107 117 -169 144 -66 29 -160 40 -223 25 -24 -5 -45 -9 -46 -8 -5 4
397 693 414 709 21 21 87 46 125 47 15 1 41 -6 57 -14z m-1263 -60 c66 -30
134 -99 170 -173 23 -46 28 -70 28 -129 l0 -73 -250 -250 -250 -250 -6 87
c-16 222 -174 419 -367 458 l-52 11 297 172 c332 191 334 192 430 147z m3757
-147 c163 -94 296 -175 296 -180 0 -4 -15 -8 -34 -8 -18 0 -66 -16 -107 -37
-101 -50 -193 -144 -245 -249 -36 -72 -39 -85 -39 -161 0 -46 -2 -83 -5 -83
-3 0 -115 110 -250 245 l-245 245 1 74 c0 59 6 84 28 129 35 73 103 142 169
172 97 46 100 45 431 -147z m-2201 131 c12 -6 39 -27 60 -47 l37 -36 0 -430 0
-430 -37 36 c-21 20 -63 49 -93 65 -50 25 -65 28 -160 28 -93 0 -111 -3 -157
-26 -29 -14 -53 -24 -53 -22 0 2 36 140 81 306 45 166 89 334 100 374 28 105
34 118 71 147 59 45 109 56 151 35z m347 -9 c21 -11 41 -24 45 -30 6 -10 36
-112 75 -260 12 -47 30 -114 40 -150 10 -36 28 -103 40 -150 12 -47 30 -114
40 -150 10 -36 21 -77 24 -92 l6 -27 -47 24 c-132 68 -297 47 -412 -51 l-41
-36 0 412 0 411 30 45 c17 24 43 50 58 58 38 21 96 19 142 -4z m-4348 -41 c71
-15 114 -38 176 -94 148 -133 255 -395 256 -630 1 -121 -23 -214 -67 -267 -12
-15 -179 -117 -371 -228 -192 -110 -350 -200 -351 -200 -1 0 11 26 27 58 43
89 59 165 59 287 1 259 -100 513 -276 689 -85 86 -157 134 -246 165 -32 12
-48 22 -39 25 27 9 664 179 720 192 30 7 56 13 57 13 1 1 26 -4 55 -10z m8686
-101 c210 -56 379 -105 375 -109 -5 -3 -31 -14 -59 -23 -228 -74 -450 -372
-510 -684 -29 -154 -10 -341 46 -451 11 -23 18 -41 16 -41 -9 0 -652 373 -684
397 -74 56 -120 193 -106 322 33 323 300 685 509 691 17 0 202 -45 413 -102z
m-9527 -124 c132 -39 256 -128 351 -253 61 -80 140 -240 169 -341 29 -104 37
-318 15 -413 -18 -77 -64 -173 -98 -206 -21 -20 -698 -415 -698 -407 0 2 11
28 25 59 97 211 63 550 -84 852 -124 254 -309 440 -483 486 -27 7 -48 16 -48
19 0 3 179 53 398 112 218 58 397 107 398 107 0 1 25 -6 55 -15z m10229 -64
c118 -32 269 -72 335 -90 66 -17 135 -36 154 -42 l34 -11 -61 -23 c-91 -34
-168 -87 -257 -178 -218 -222 -357 -552 -358 -856 -1 -140 14 -216 63 -311
l29 -57 -257 148 c-525 303 -471 266 -509 341 -88 174 -82 424 13 653 106 251
322 456 511 485 57 8 36 13 303 -59z m-7529 -26 c142 -77 259 -266 259 -418 0
-100 -3 -104 -260 -361 l-240 -240 7 67 c13 148 -54 319 -179 453 -107 115
-199 169 -322 190 -38 6 -36 7 255 176 l294 170 66 -4 c48 -3 81 -12 120 -33z
m4993 -143 l289 -166 -51 -7 c-195 -28 -395 -210 -480 -436 -20 -53 -25 -86
-26 -160 l-1 -92 -237 237 c-180 180 -241 247 -248 273 -35 127 28 292 156
409 86 78 204 127 279 114 17 -3 160 -80 319 -172z m-4049 124 c101 -26 189
-98 231 -189 45 -96 44 -100 -148 -430 -165 -286 -187 -316 -188 -250 0 35
-66 155 -115 211 -94 107 -245 179 -360 171 -30 -1 -55 -1 -55 2 0 13 487 489
505 493 39 9 71 7 130 -8z m3007 -242 c136 -136 248 -250 248 -253 0 -3 -39
-5 -88 -6 -70 -1 -99 -6 -150 -27 -168 -69 -291 -207 -311 -346 l-6 -45 -178
309 -178 309 11 45 c26 104 93 186 188 232 64 31 99 39 161 34 l55 -4 248
-248z m-2429 -81 c71 -34 128 -85 158 -144 23 -45 22 -64 -11 -178 -10 -36
-41 -153 -70 -260 -28 -107 -59 -219 -67 -249 l-15 -54 -15 33 c-43 104 -169
210 -302 255 -86 29 -204 34 -271 10 -24 -8 -44 -14 -46 -13 -1 2 76 138 171
303 l173 300 49 18 c69 25 166 17 246 -21z m1701 20 l49 -17 174 -303 c96
-167 173 -305 171 -307 -2 -2 -24 3 -48 12 -56 19 -177 21 -250 4 -134 -32
-255 -117 -312 -218 -17 -30 -32 -53 -33 -51 -2 2 -42 149 -90 328 -56 212
-85 335 -81 353 9 42 61 113 110 146 99 69 211 88 310 53z m-3869 -30 c147
-57 294 -215 362 -389 36 -93 39 -237 6 -298 -12 -22 -129 -147 -260 -277
l-238 -238 -1 103 c0 90 -4 114 -36 205 -59 171 -173 335 -305 441 -80 64
-152 98 -238 113 l-69 13 293 169 c161 93 307 172 324 177 40 9 110 1 162 -19z
m6282 -162 l302 -175 -68 -16 c-141 -33 -266 -111 -393 -249 -168 -180 -248
-389 -215 -555 8 -38 -3 -29 -247 215 l-254 255 -12 60 c-19 88 -2 177 56 294
39 79 62 110 133 181 123 123 223 172 341 167 52 -3 76 -15 357 -177z m-3032
49 c68 -12 121 -37 151 -71 16 -16 46 -115 109 -351 48 -180 85 -330 83 -332
-2 -3 -20 6 -40 20 -102 69 -295 90 -428 45 -81 -27 -150 -70 -189 -118 l-30
-37 -1 352 0 353 36 40 c42 46 122 88 191 100 26 4 51 8 54 9 3 0 32 -4 64
-10z m-547 -14 c59 -18 127 -66 159 -114 23 -34 23 -37 23 -383 l0 -349 -47
48 c-98 100 -222 148 -378 146 -108 -1 -161 -14 -229 -59 l-39 -26 5 23 c7 34
136 511 159 591 21 71 45 94 128 124 49 18 157 17 219 -1z m-1508 -91 c83 -42
179 -129 223 -204 33 -57 61 -163 52 -198 -3 -15 -81 -157 -173 -316 l-167
-289 -7 51 c-29 199 -219 404 -448 483 -48 17 -88 23 -153 23 l-88 0 237 237
c263 263 260 261 379 254 55 -3 86 -12 145 -41z m3660 25 c29 -9 91 -65 276
-250 l238 -238 -75 6 c-266 19 -578 -217 -632 -477 l-12 -58 -167 291 c-162
281 -168 292 -168 346 0 219 321 445 540 380z m-5535 -174 c206 -54 424 -296
506 -565 32 -102 32 -236 1 -296 -24 -47 -587 -603 -577 -570 16 50 17 222 2
292 -79 371 -398 690 -732 732 l-60 7 341 197 c392 227 405 232 519 203z
m7673 -207 l352 -203 -65 -7 c-169 -17 -317 -91 -463 -232 -128 -124 -210
-249 -263 -406 -29 -84 -32 -108 -33 -210 -1 -63 2 -131 7 -150 6 -31 -25 -2
-273 245 -320 319 -335 339 -334 460 0 43 8 97 22 140 90 292 436 591 658 570
31 -3 127 -54 392 -207z m-5177 -24 c132 -39 258 -136 304 -236 31 -66 31 -88
1 -201 -94 -351 -128 -476 -137 -504 l-10 -33 -35 70 c-68 135 -235 255 -423
301 -109 27 -242 24 -314 -9 l-48 -21 19 32 c11 17 79 136 152 262 178 310
172 302 233 331 63 29 174 33 258 8z m2339 5 c122 -19 125 -22 310 -344 91
-158 167 -291 169 -297 2 -5 -14 -1 -35 10 -60 31 -150 45 -232 38 -85 -7
-233 -54 -310 -98 -86 -49 -177 -141 -213 -214 -18 -36 -33 -63 -34 -62 -2 3
-124 456 -162 600 -13 52 -13 62 2 108 32 96 153 200 279 240 32 10 93 22 151
29 6 0 39 -4 75 -10z m-3554 -100 c32 -5 102 -31 154 -57 128 -62 247 -178
305 -296 35 -70 39 -86 40 -155 l0 -76 -175 -302 -175 -302 -20 82 c-31 127
-90 222 -215 347 -192 192 -407 282 -585 247 -38 -8 -30 1 200 233 132 133
252 248 267 256 60 31 120 38 204 23z m4790 -27 c21 -11 147 -129 279 -262
l240 -241 -70 6 c-185 17 -447 -98 -623 -273 -105 -105 -163 -211 -180 -330
l-7 -47 -174 300 -175 300 1 65 c0 84 28 155 94 243 86 114 233 214 369 252
74 20 194 14 246 -13z m-6736 -106 c199 -69 391 -250 500 -471 67 -136 94
-249 87 -375 -8 -161 5 -141 -315 -462 -157 -158 -287 -286 -289 -285 -1 2 3
34 8 72 37 235 -105 581 -340 827 -176 185 -350 283 -543 305 l-67 8 357 208
357 207 86 -4 c57 -3 112 -13 159 -30z m3972 4 c84 -26 184 -92 223 -148 l30
-44 0 -343 0 -342 -57 62 c-158 173 -490 235 -708 134 -36 -17 -75 -40 -87
-51 -34 -31 -41 -68 77 372 79 294 82 300 175 346 28 13 71 29 95 34 63 13
174 4 252 -20z m812 4 c57 -16 122 -52 153 -86 17 -18 45 -107 108 -343 47
-176 85 -323 85 -327 0 -5 -20 7 -45 26 -74 57 -206 96 -326 96 -192 0 -420
-100 -491 -215 -18 -29 -18 -24 -18 314 l0 344 25 43 c80 136 313 204 509 148z
m4305 -190 l343 -199 -53 -8 c-360 -55 -719 -392 -861 -810 -28 -82 -32 -105
-32 -212 -1 -66 3 -138 7 -160 8 -38 -6 -25 -286 254 -218 217 -297 303 -306
330 -21 61 -25 217 -8 297 35 162 126 323 261 462 165 170 345 256 516 249
l75 -4 344 -199z m-6225 -214 c121 -31 229 -92 317 -179 79 -79 119 -153 119
-221 0 -15 -32 -147 -71 -292 -39 -145 -77 -290 -86 -323 -20 -78 -27 -84 -43
-36 -19 58 -106 168 -180 228 -189 152 -462 244 -637 213 -37 -6 -89 -22 -115
-34 -26 -12 -46 -20 -44 -17 97 172 343 591 354 605 64 71 233 96 386 56z
m3047 -10 c30 -11 66 -31 80 -43 21 -17 369 -604 369 -622 0 -2 -20 5 -44 16
-24 10 -78 24 -120 31 -234 36 -590 -92 -745 -268 -42 -48 -91 -139 -91 -170
0 -10 -2 -15 -4 -13 -3 2 -46 157 -96 343 -87 322 -91 342 -80 385 50 201 344
381 601 366 43 -2 100 -13 130 -25z m-4436 -2 c122 -31 278 -131 393 -253 126
-134 194 -268 196 -385 l0 -65 -204 -352 -205 -352 -7 72 c-18 173 -108 338
-264 487 -122 116 -254 195 -404 241 -59 19 -99 24 -185 24 -60 0 -126 -3
-145 -8 -31 -6 -3 25 240 268 151 152 294 288 317 301 69 41 162 49 268 22z
m5791 -22 c28 -11 118 -96 319 -301 154 -158 271 -283 260 -280 -52 17 -224
17 -296 1 -180 -40 -361 -144 -499 -285 -130 -134 -214 -295 -227 -439 -3 -35
-9 -59 -13 -55 -27 28 -386 667 -398 706 -40 138 56 326 242 473 119 94 266
166 397 194 59 12 167 5 215 -14z m-3383 -242 c95 -24 186 -72 245 -128 95
-90 92 -73 92 -483 l0 -357 -30 41 c-64 87 -227 182 -387 224 -111 30 -325 37
-424 15 -77 -17 -154 -55 -201 -99 -16 -15 -28 -24 -28 -21 0 2 40 156 90 341
87 327 91 338 127 375 103 105 317 143 516 92z m1048 2 c101 -31 195 -98 218
-154 6 -15 47 -164 91 -332 45 -168 84 -313 86 -323 4 -12 -11 -6 -52 23 -106
74 -308 119 -474 106 -249 -21 -440 -106 -521 -235 l-29 -45 0 354 c0 405 -1
399 89 483 73 68 172 112 309 137 63 12 226 4 283 -14z m-4013 -352 c172 -35
341 -133 483 -281 95 -99 157 -195 197 -305 21 -59 26 -91 26 -168 l1 -95
-200 -343 -200 -344 -8 54 c-15 97 -59 219 -111 304 -165 271 -460 494 -753
570 -84 22 -113 25 -203 21 -58 -3 -116 -9 -130 -12 -16 -5 83 101 269 288
305 306 297 300 396 321 47 9 162 5 233 -10z m1622 -25 c96 -25 257 -103 341
-167 127 -96 219 -230 219 -316 0 -23 -22 -122 -49 -221 -26 -99 -72 -268
-100 -375 -29 -107 -54 -199 -55 -205 -1 -5 -11 16 -21 48 -38 122 -129 241
-258 338 -265 201 -634 266 -874 154 -29 -13 -53 -22 -53 -20 0 11 394 683
411 701 32 34 112 73 170 83 69 12 173 4 269 -20z m5315 11 c32 -9 95 -66 327
-298 158 -157 286 -287 285 -289 -2 -1 -34 3 -72 8 -140 22 -329 -21 -516
-118 -139 -72 -255 -160 -370 -281 -150 -159 -229 -311 -246 -474 l-8 -77
-207 359 -208 359 0 63 c0 308 318 655 686 748 88 22 256 22 329 0z m-1586
-26 c106 -31 107 -34 328 -415 112 -194 203 -354 203 -355 0 -2 -15 5 -33 16
-272 161 -773 48 -1033 -233 -59 -64 -144 -207 -144 -243 0 -54 -28 33 -115
359 -111 412 -114 438 -72 530 112 245 577 429 866 341z m-2456 -338 c178 -53
307 -133 371 -228 l36 -53 0 -413 0 -414 -43 58 c-102 138 -247 228 -458 286
-72 20 -108 23 -254 23 -132 0 -184 -4 -234 -18 -96 -26 -178 -66 -250 -120
-37 -28 -61 -41 -57 -31 4 10 49 178 101 373 52 196 100 367 106 380 21 50 70
99 127 129 100 53 149 62 317 58 126 -3 164 -8 238 -30z m1270 5 c116 -30 227
-95 257 -151 5 -9 54 -187 110 -396 55 -208 103 -385 105 -392 3 -8 -17 6 -44
30 -63 57 -166 111 -266 140 -70 20 -102 23 -255 23 -151 0 -187 -3 -260 -23
-185 -49 -364 -165 -446 -286 l-34 -51 0 401 c0 469 -1 465 89 555 87 86 223
145 394 169 89 13 262 3 350 -19z m-2905 -376 c159 -30 315 -101 441 -201 96
-76 161 -154 207 -249 64 -133 65 -125 -37 -505 -50 -184 -97 -359 -106 -389
l-15 -54 -19 53 c-31 89 -79 159 -174 255 -134 136 -303 238 -501 304 -146 49
-227 63 -364 64 -141 1 -213 -14 -309 -63 l-60 -30 146 253 c80 138 174 303
210 365 63 109 67 114 125 143 131 66 292 85 456 54z m4440 -11 c76 -17 168
-62 203 -101 23 -25 413 -693 405 -693 -2 0 -28 11 -59 25 -259 119 -710 37
-1034 -187 -109 -75 -223 -201 -272 -299 -23 -45 -41 -90 -41 -100 0 -66 -28
19 -120 364 -58 216 -104 407 -102 425 6 86 90 230 188 323 78 73 136 112 247
164 198 94 397 121 585 79z m-2903 -401 c92 -26 182 -63 253 -104 77 -45 193
-162 226 -226 l26 -52 0 -407 0 -407 -26 39 c-120 180 -399 323 -711 365 -126
17 -357 7 -457 -20 -111 -29 -215 -82 -282 -143 -47 -43 -55 -48 -49 -28 4 14
54 198 111 408 113 426 105 407 216 483 71 49 131 75 228 100 102 25 359 21
465 -8z m1515 2 c113 -30 208 -82 280 -155 l65 -65 99 -375 c54 -206 101 -381
104 -389 3 -8 -17 4 -44 26 -151 125 -359 180 -638 170 -218 -8 -380 -47 -546
-133 -128 -66 -213 -143 -287 -260 -9 -15 -12 72 -12 402 l-1 421 38 59 c99
151 268 256 492 305 109 24 350 21 450 -6z"/>
</g>
</svg>
