<?xml version="1.0" standalone="no"?>
<!DOCTYPE svg PUBLIC "-//W3C//DTD SVG 20010904//EN"
 "http://www.w3.org/TR/2001/REC-SVG-20010904/DTD/svg10.dtd">
<svg version="1.0" xmlns="http://www.w3.org/2000/svg"
 width="1280.000000pt" height="1214.000000pt" viewBox="0 0 1280.000000 1214.000000"
 preserveAspectRatio="xMidYMid meet">
<metadata>
Created by potrace 1.15, written by Peter Selinger 2001-2017
</metadata>
<g transform="translate(0.000000,1214.000000) scale(0.100000,-0.100000)"
fill="#000000" stroke="none">
<path d="M11231 12129 c-52 -5 -134 -15 -182 -24 -49 -8 -94 -15 -99 -15 -6 0
-10 -4 -10 -10 0 -5 7 -10 15 -10 24 0 18 -13 -41 -96 -144 -203 -331 -332
-466 -322 -30 2 -45 9 -53 23 -25 49 -26 49 -71 1 -34 -35 -57 -49 -102 -61
-31 -9 -66 -20 -77 -25 -19 -9 -19 -9 3 -16 45 -13 16 -60 -43 -67 -22 -3 -51
-8 -65 -12 -33 -8 -330 150 -345 183 -5 12 -13 22 -16 22 -11 0 -125 -135
-201 -237 -235 -316 -344 -598 -336 -865 l3 -93 81 77 c66 62 92 80 136 93 64
18 70 28 138 200 34 85 54 120 89 156 59 61 85 67 164 39 101 -36 102 -36 125
4 29 49 76 60 223 53 129 -7 289 -36 382 -71 53 -20 62 -27 65 -50 2 -17 -4
-37 -15 -50 -37 -42 -44 -54 -34 -60 5 -3 17 1 26 10 15 15 17 15 22 -5 5 -21
7 -21 30 -6 19 13 27 14 39 4 11 -9 14 -8 14 6 0 11 5 15 16 11 13 -5 14 1 8
39 -6 44 -6 45 22 45 54 0 259 -47 303 -69 23 -12 45 -20 48 -17 3 3 -13 23
-36 43 l-43 38 37 106 c20 58 45 121 56 138 18 30 23 33 62 29 23 -3 50 -8 59
-12 26 -12 45 35 29 70 -12 26 -12 26 -109 23 l-97 -4 -3 34 c-8 85 60 172
167 212 44 17 71 20 126 16 39 -2 77 -8 86 -11 11 -5 21 6 39 44 32 68 111
142 180 167 96 36 178 38 360 8 30 -5 43 -1 87 33 57 44 134 68 189 59 19 -3
34 -2 34 2 0 15 -102 83 -182 121 -199 93 -502 129 -837 99z"/>
<path d="M5005 11972 c-102 -35 -233 -134 -278 -210 l-17 -30 62 5 c51 5 71
13 107 40 50 38 80 42 106 13 12 -13 25 -18 37 -14 32 10 178 -89 178 -122 0
-7 -7 -17 -17 -22 -14 -9 -14 -11 6 -21 17 -10 26 -10 36 -1 11 10 22 6 51
-18 l37 -30 24 28 c29 35 59 46 79 29 13 -10 17 -10 25 2 9 14 4 20 -38 45
-15 9 -16 14 -5 27 23 27 69 31 111 10 34 -17 43 -18 63 -7 37 21 78 16 127
-15 45 -28 151 -51 151 -33 0 21 -49 79 -95 114 -28 21 -92 59 -144 84 l-94
47 -44 -22 c-65 -31 -123 -42 -166 -30 -21 5 -37 16 -37 24 0 11 -10 14 -37
11 -21 -1 -46 -6 -55 -10 -27 -12 -56 11 -89 69 -17 30 -32 55 -32 55 -1 -1
-25 -8 -52 -18z"/>
<path d="M7575 11940 c-3 -5 -30 -10 -58 -10 -57 -1 -111 -17 -154 -46 l-28
-19 47 -5 c27 -3 53 -11 60 -18 7 -7 28 -12 49 -12 21 0 47 -8 62 -20 15 -12
40 -20 62 -20 49 0 78 -16 70 -39 -4 -15 1 -19 27 -24 18 -3 40 -8 49 -12 10
-4 19 2 27 20 18 39 56 49 114 30 44 -14 50 -14 73 1 21 13 30 14 53 5 21 -9
36 -9 56 -1 16 6 44 7 64 4 27 -5 34 -4 30 7 -8 25 -101 88 -139 94 -20 4 -45
13 -56 20 -24 19 -52 18 -96 0 -46 -19 -67 -19 -67 0 0 12 -4 13 -26 3 -22
-10 -28 -10 -39 5 -17 23 -33 21 -37 -4 -3 -19 -5 -19 -48 9 -54 36 -86 46
-95 32z"/>
<path d="M1310 11471 c0 -5 46 -31 103 -59 56 -27 123 -68 149 -91 48 -43 108
-146 108 -186 0 -12 20 -45 44 -73 70 -82 85 -107 113 -184 17 -49 26 -98 27
-147 l3 -74 96 -61 c125 -79 195 -141 245 -216 52 -77 80 -151 88 -234 l7 -66
-35 0 c-19 0 -43 6 -53 14 -24 17 -45 0 -45 -38 0 -30 36 -44 68 -27 32 17 59
13 84 -13 19 -20 36 -25 98 -29 59 -3 88 -11 134 -36 33 -18 66 -40 73 -50 7
-10 29 -22 50 -26 21 -4 43 -11 49 -16 7 -6 22 -6 38 1 15 5 39 10 53 10 57 0
113 40 174 124 157 215 303 353 436 412 44 20 57 32 78 74 39 77 247 266 359
325 21 11 49 40 65 65 54 87 167 195 306 292 73 51 148 101 166 111 17 10 29
20 27 23 -20 19 -360 -144 -525 -252 -203 -132 -373 -282 -621 -547 -97 -104
-182 -196 -189 -205 -15 -21 -17 -8 -2 20 7 14 8 23 1 30 -11 11 -16 8 -117
-59 -56 -38 -90 -42 -105 -13 -25 47 -128 99 -143 73 -3 -5 -2 -29 3 -55 4
-27 3 -48 -1 -48 -5 0 -56 64 -113 143 -58 78 -124 166 -146 196 -49 65 -50
81 -9 81 46 0 26 17 -30 25 l-49 7 -93 126 c-187 253 -433 470 -641 566 -116
54 -328 110 -328 87z"/>
<path d="M7076 10949 c-27 -4 -58 -17 -69 -28 -20 -19 -20 -20 19 -36 28 -11
53 -14 87 -10 47 7 48 6 60 -24 6 -17 19 -31 27 -31 10 0 25 -19 38 -47 32
-73 36 -93 18 -93 -9 0 -16 -4 -16 -10 0 -5 7 -10 15 -10 9 0 24 -14 33 -30
16 -28 20 -30 58 -24 34 5 44 2 52 -11 7 -13 11 -14 17 -5 4 6 2 17 -4 23 -18
18 -13 37 10 37 11 0 34 -13 51 -30 16 -16 36 -30 43 -30 32 0 64 -25 81 -61
9 -22 23 -39 29 -39 7 0 18 -7 25 -15 37 -44 28 50 -12 128 -11 23 -36 63 -55
90 -32 44 -38 47 -79 47 -59 0 -114 23 -114 48 0 15 -35 42 -60 46 -20 4 -30
23 -36 66 -5 38 -11 50 -28 54 -29 8 -131 5 -190 -5z"/>
<path d="M6452 10684 c-37 -22 -81 -79 -69 -90 6 -7 54 13 62 25 15 25 125 -6
125 -35 0 -6 12 -14 28 -17 29 -6 62 15 62 40 0 8 14 14 38 15 58 3 65 2 95
-5 39 -10 36 16 -5 41 -52 32 -100 42 -129 26 -36 -18 -128 -13 -144 9 -15 21
-12 22 -63 -9z"/>
<path d="M11665 10680 c-3 -5 -34 -10 -68 -10 -39 0 -77 -7 -103 -19 -56 -25
-64 -41 -22 -41 19 0 43 -7 54 -15 10 -8 37 -15 60 -15 30 0 47 -6 63 -24 18
-20 30 -23 57 -19 38 6 87 -19 78 -41 -3 -8 5 -15 23 -19 15 -4 38 -9 51 -13
16 -5 22 -2 22 10 0 28 45 49 92 42 45 -7 70 -7 153 -3 28 2 71 4 98 5 26 1
47 7 47 13 0 24 -61 66 -122 84 -34 10 -68 24 -74 32 -15 18 -34 16 -94 -7
-61 -24 -60 -24 -60 -5 0 17 -18 19 -40 5 -11 -7 -20 -4 -33 13 -10 12 -20 18
-23 12 -16 -37 -21 -37 -64 -6 -43 31 -83 40 -95 21z"/>
<path d="M8837 10553 c-16 -4 -18 -11 -13 -41 3 -21 10 -76 14 -123 8 -85 10
-89 71 -178 85 -125 115 -193 115 -261 0 -48 -7 -69 -56 -160 -31 -58 -68
-134 -81 -170 -33 -89 -67 -155 -121 -233 -63 -92 -86 -140 -100 -211 -13 -61
-13 -61 -52 -66 l-39 -5 -7 -61 c-15 -137 -62 -241 -148 -324 -57 -57 -122
-96 -140 -85 -19 12 -9 91 22 175 17 47 33 101 35 120 4 34 3 36 -76 85 -44
28 -81 55 -81 61 0 6 7 28 15 47 19 45 19 53 0 61 -10 4 -29 -15 -60 -62 -63
-93 -60 -135 10 -130 30 2 42 -3 61 -25 28 -33 30 -66 9 -152 -8 -33 -15 -95
-15 -137 0 -42 -4 -88 -9 -101 -5 -14 -37 -46 -70 -71 -65 -50 -81 -82 -81
-163 0 -22 -16 -88 -36 -145 l-36 -103 8 -115 c9 -135 9 -172 -1 -427 -6 -144
-11 -193 -20 -193 -20 0 -133 88 -202 157 -70 70 -79 95 -70 205 4 47 1 81 -9
110 -7 22 -14 70 -14 107 0 42 -7 81 -19 106 -35 79 -34 86 16 165 l46 72 7
132 c4 89 11 141 22 161 31 61 32 73 1 77 -26 3 -30 10 -56 93 -16 50 -42 133
-58 185 -19 60 -46 117 -71 154 -64 91 -87 158 -88 246 0 79 -15 123 -41 128
-20 4 -29 -25 -29 -100 l0 -58 -50 0 c-63 0 -65 -15 -9 -60 219 -175 373 -760
251 -948 -14 -21 -16 -22 -33 -6 -23 21 -41 72 -28 79 21 13 49 87 49 127 0
89 -45 94 -52 6 -2 -29 -12 -65 -22 -80 -18 -28 -18 -28 -48 -10 -55 32 -163
139 -196 194 -36 60 -75 215 -87 342 -8 81 -26 112 -44 77 -19 -34 -12 -132
15 -229 24 -86 25 -94 10 -111 -20 -22 -20 -35 -2 -50 8 -7 17 -35 21 -64 4
-29 18 -80 32 -115 13 -34 23 -67 21 -73 -6 -19 -115 89 -131 129 -9 21 -19
71 -23 110 -3 40 -10 75 -14 77 -18 11 -33 -27 -27 -68 7 -49 -3 -76 -20 -55
-6 7 -18 36 -27 65 -9 28 -23 54 -31 57 -18 6 -35 -23 -35 -60 0 -29 30 -62
258 -288 56 -56 102 -108 102 -116 0 -21 -121 -4 -206 29 -86 33 -200 107
-245 158 -48 55 -86 146 -109 263 -21 106 -40 150 -65 150 -9 0 -16 -17 -20
-53 -6 -48 -4 -60 23 -108 17 -30 38 -85 47 -123 22 -98 40 -130 104 -185 152
-132 250 -171 436 -179 124 -4 133 -6 205 -41 72 -35 76 -38 97 -93 13 -31 29
-87 37 -125 16 -75 40 -312 32 -320 -9 -9 -49 20 -122 88 -78 71 -93 78 -212
98 -40 6 -82 21 -110 40 -26 16 -73 37 -105 46 -53 15 -69 27 -175 134 -91 91
-133 126 -188 154 -40 20 -106 62 -149 92 -98 71 -125 73 -91 6 22 -41 68 -79
230 -185 88 -58 157 -112 178 -137 69 -89 93 -106 170 -124 40 -10 108 -35
151 -57 42 -21 104 -45 137 -52 38 -9 79 -28 111 -52 99 -72 234 -187 234
-198 0 -6 -20 -18 -44 -26 -35 -12 -51 -26 -78 -67 -18 -29 -49 -65 -69 -80
-19 -15 -44 -45 -55 -65 -18 -35 -29 -42 -84 -50 -34 -5 -30 -44 9 -90 41 -47
53 -93 37 -139 -14 -40 -72 -118 -88 -119 -6 0 -28 9 -48 21 -38 23 -74 23
-156 -1 -60 -17 -86 -9 -154 46 l-57 47 7 51 c16 112 -4 168 -26 71 -7 -32
-20 -67 -30 -78 -16 -21 -17 -20 -53 50 -23 47 -49 81 -73 100 -21 15 -72 59
-113 98 -74 69 -78 71 -190 104 -137 39 -247 106 -351 213 -49 50 -80 73 -123
89 -74 29 -103 60 -167 180 -71 133 -98 158 -191 176 -84 16 -116 40 -155 118
-53 104 -85 131 -172 144 -41 5 -50 11 -78 54 -20 30 -55 119 -95 242 -35 107
-66 195 -70 195 -18 0 -1 -265 22 -349 7 -27 28 -62 57 -92 54 -58 58 -49 -68
-150 -49 -40 -89 -78 -89 -86 0 -29 31 -23 82 15 186 141 313 128 395 -40 29
-60 35 -65 119 -112 190 -106 219 -138 212 -235 -5 -66 -51 -172 -93 -211
l-25 -24 -78 37 c-95 44 -126 54 -120 36 2 -7 25 -20 50 -28 25 -9 65 -33 88
-54 37 -35 46 -38 78 -32 19 3 45 13 58 22 25 16 58 79 69 131 l7 32 51 -28
c29 -16 63 -32 77 -35 14 -4 77 -48 141 -99 184 -147 219 -168 312 -190 99
-23 140 -46 234 -132 125 -115 131 -126 149 -268 9 -68 23 -132 30 -143 17
-24 18 -67 3 -135 -10 -46 -14 -51 -33 -46 -172 44 -160 39 -171 83 -5 22 -23
59 -39 82 -27 39 -29 45 -17 76 15 43 8 58 -57 112 -46 39 -51 48 -71 125 -12
46 -27 95 -33 111 -24 63 -173 163 -260 175 -62 8 -47 -19 35 -60 147 -73 182
-113 207 -238 12 -57 20 -72 69 -123 l55 -58 -24 -44 -24 -45 41 -42 c28 -29
47 -62 59 -102 10 -33 27 -64 39 -72 11 -7 53 -20 94 -28 41 -9 82 -23 93 -32
20 -19 58 -131 58 -174 0 -24 -5 -29 -44 -39 -25 -6 -108 -11 -184 -11 -234 0
-542 -65 -542 -114 0 -21 65 -21 140 -1 31 8 99 15 155 15 59 0 120 6 149 15
27 8 88 15 135 16 47 0 108 4 135 8 74 12 115 -1 161 -52 22 -24 90 -77 150
-118 79 -52 146 -109 235 -199 69 -70 142 -139 163 -154 20 -16 37 -32 37 -37
0 -5 -40 -9 -88 -9 -88 0 -88 0 -122 35 -19 19 -41 33 -49 31 -9 -2 -33 -7
-53 -11 -50 -8 -48 -21 5 -36 23 -7 48 -18 56 -25 17 -16 10 -19 -60 -29 -31
-4 -53 -14 -67 -30 -12 -14 -31 -25 -41 -25 -11 0 -41 -16 -67 -36 -52 -40
-53 -40 -189 -10 -38 9 -86 16 -105 16 -42 0 -80 -24 -80 -50 0 -18 2 -18 28
-3 22 13 44 14 115 8 48 -4 87 -11 87 -16 0 -4 -34 -31 -76 -59 -41 -29 -114
-87 -162 -129 -48 -43 -97 -83 -110 -90 -30 -16 -81 -8 -203 34 -126 43 -169
50 -194 31 -25 -18 -29 -16 135 -56 69 -17 158 -33 198 -37 l72 -6 -1 -476
c-1 -439 -2 -473 -16 -438 -9 20 -19 37 -24 37 -13 0 -78 -44 -79 -54 0 -4 7
-5 16 -2 57 22 60 20 74 -38 15 -65 9 -82 -15 -36 -16 32 -18 32 -68 26 -70
-10 -133 -49 -159 -100 -11 -22 -39 -58 -62 -79 -23 -20 -35 -37 -27 -37 7 0
32 19 55 42 22 23 46 42 51 43 6 0 9 8 7 16 -3 18 25 46 35 35 4 -3 16 2 27
13 29 27 98 45 108 28 12 -19 10 -24 -22 -47 -41 -29 -62 -73 -58 -123 2 -34
7 -43 24 -45 22 -3 22 -3 4 -50 -10 -26 -21 -69 -24 -97 -4 -27 -18 -67 -32
-87 -26 -41 -29 -48 -15 -48 13 0 50 66 60 108 4 20 22 71 40 112 30 72 33 76
89 103 35 17 83 30 123 33 64 6 66 6 87 -23 11 -16 24 -41 27 -56 4 -15 11
-27 17 -27 16 0 -18 87 -49 121 -12 15 -11 17 12 23 51 13 170 -27 204 -68 8
-9 18 -16 24 -16 6 0 -4 16 -23 35 -44 45 -124 75 -200 75 -33 0 -60 3 -60 8
0 19 42 73 69 87 17 8 53 15 81 15 30 0 50 4 50 11 0 8 -23 9 -77 5 -74 -7
-80 -9 -116 -47 l-38 -40 -19 23 c-25 29 -25 30 5 88 15 30 37 56 55 65 31 16
40 35 16 35 -24 0 -67 -42 -98 -96 -16 -30 -33 -54 -36 -54 -10 0 -16 864 -7
946 7 63 10 70 58 121 58 61 155 135 239 182 l56 32 60 -16 c88 -22 95 -20
147 38 83 92 121 105 196 66 37 -18 47 -19 109 -10 115 18 111 20 158 -61 49
-85 57 -96 96 -126 26 -20 46 -22 46 -3 0 5 -16 29 -36 55 -20 26 -34 50 -31
53 14 14 59 -18 156 -111 58 -56 135 -124 171 -153 60 -47 71 -61 134 -184
124 -241 173 -323 225 -374 52 -50 63 -75 35 -75 -19 0 -13 -22 29 -105 25
-49 32 -77 37 -150 5 -73 11 -96 29 -122 18 -23 25 -49 29 -102 l5 -71 -38 0
c-37 0 -37 0 -22 24 16 23 15 25 -25 51 -44 29 -111 44 -122 27 -8 -14 18 -28
67 -37 38 -7 46 -22 25 -43 -30 -30 -143 1 -201 56 -16 15 -40 48 -53 75 -13
26 -29 47 -34 47 -19 0 -10 -58 15 -94 36 -53 33 -59 -26 -54 -40 4 -65 16
-122 55 -86 60 -117 72 -117 47 0 -10 7 -26 17 -36 25 -27 -4 -24 -49 7 -27
18 -42 40 -60 86 -25 66 -45 86 -72 76 -15 -6 -14 -13 15 -67 62 -117 138
-179 198 -163 11 3 46 -8 78 -23 52 -26 69 -29 168 -30 82 -1 124 -7 163 -22
72 -26 82 -38 48 -53 -35 -16 -139 0 -198 31 -47 24 -68 20 -68 -13 0 -21 7
-26 48 -37 26 -6 77 -20 114 -31 83 -24 82 -24 119 3 l30 22 67 -23 c37 -13
84 -32 105 -43 l37 -18 2 -108 c3 -141 3 -159 -7 -277 -6 -78 -4 -123 10 -205
24 -143 17 -282 -34 -655 -23 -165 -43 -306 -46 -312 -2 -7 -11 -10 -19 -7
-10 4 -20 -8 -34 -39 -22 -49 -49 -76 -37 -36 4 13 19 43 32 67 39 66 11 97
-30 34 l-18 -27 4 63 c4 50 2 62 -9 62 -8 0 -14 -6 -12 -12 1 -7 -8 -29 -20
-48 -20 -32 -22 -33 -22 -11 0 13 13 45 30 72 30 50 26 68 -11 48 -20 -10 -21
-9 -15 16 4 15 18 44 32 64 31 46 32 74 2 69 -17 -2 -33 -22 -60 -77 -21 -41
-46 -83 -56 -95 -11 -12 -25 -31 -31 -43 -6 -13 -21 -23 -31 -23 -13 0 -20 -7
-20 -20 0 -29 -27 -90 -39 -90 -6 0 -11 15 -11 34 0 18 -7 39 -15 46 -8 7 -15
21 -15 32 0 29 -39 98 -55 98 -20 0 -20 -1 16 -82 26 -60 30 -77 24 -119 -7
-51 -19 -69 -29 -44 -3 8 -8 48 -12 90 -5 53 -11 75 -20 75 -8 0 -16 -12 -20
-27 -17 -80 -22 -79 -54 9 -13 35 -34 73 -47 86 -12 13 -23 34 -23 47 0 38
-25 30 -58 -17 -16 -24 -39 -51 -50 -61 -19 -18 -20 -17 -31 13 -6 18 -16 30
-22 28 -12 -4 -13 -7 -4 -57 5 -32 1 -52 -21 -100 -16 -34 -31 -61 -35 -61
-13 0 -20 51 -13 102 7 48 6 50 -14 44 -17 -6 -24 1 -42 37 -20 40 -21 49 -10
83 7 21 26 58 41 83 16 25 29 55 29 68 0 40 -28 25 -56 -29 -40 -78 -56 -101
-64 -88 -6 10 7 74 25 113 12 29 -3 32 -35 9 -16 -12 -31 -22 -33 -22 -15 0
42 175 73 225 11 18 20 40 20 49 0 52 -83 -31 -104 -105 -16 -52 -81 -139
-106 -139 -5 0 -10 -7 -10 -15 0 -22 -35 -88 -55 -105 -15 -13 -17 -11 -15 20
3 56 1 57 -20 13 -10 -24 -23 -43 -28 -43 -9 0 -18 40 -26 115 -2 17 -9 30
-16 30 -14 0 -17 -8 -44 -106 -15 -53 -18 -56 -42 -51 l-26 5 7 103 c5 70 4
104 -3 104 -17 0 -24 -18 -32 -78 -12 -79 -31 -131 -50 -130 -8 0 -27 -4 -42
-10 -28 -12 -37 -45 -36 -136 0 -61 -18 -66 -31 -8 -6 27 -22 85 -37 128 -32
94 -152 386 -163 397 -22 22 -116 -97 -201 -256 -23 -43 -43 -77 -45 -75 -1 2
1 35 6 73 11 100 11 127 -2 123 -7 -2 -22 -46 -34 -96 -12 -51 -25 -95 -28
-98 -3 -4 -25 55 -49 130 -44 139 -57 158 -88 121 -16 -19 -2 -77 56 -243 42
-122 43 -123 28 -172 -8 -28 -18 -50 -22 -50 -4 0 -20 43 -35 95 -28 96 -56
141 -83 131 -8 -3 -14 -18 -15 -33 0 -15 -4 -37 -8 -48 -7 -16 -9 -13 -15 18
-4 21 -14 41 -22 44 -21 8 -17 51 11 111 25 53 33 112 16 112 -5 0 -19 -24
-31 -52 -12 -29 -29 -61 -37 -70 -8 -9 -16 -34 -18 -55 -3 -41 -47 -219 -56
-228 -9 -9 -42 204 -59 382 -6 62 -13 120 -16 128 -10 25 -34 17 -34 -10 0
-25 36 -349 46 -415 l5 -35 -16 34 c-8 18 -40 117 -70 218 -61 204 -60 203
-81 203 -17 0 -18 -33 -3 -63 12 -21 22 -86 39 -247 5 -47 16 -120 24 -163 9
-43 16 -91 16 -105 -1 -36 -30 36 -71 178 -33 113 -42 131 -60 113 -8 -8 -7
-29 4 -79 9 -37 14 -71 11 -76 -11 -17 -23 4 -34 56 -11 53 -32 82 -77 105
-53 27 -56 9 -7 -55 30 -39 41 -67 60 -154 12 -58 34 -142 49 -188 14 -46 25
-97 23 -115 l-4 -32 -22 50 c-12 28 -27 59 -34 70 -49 80 -59 111 -53 158 5
33 3 47 -5 47 -22 0 -100 -61 -100 -78 0 -10 -18 -41 -40 -71 -22 -29 -40 -57
-40 -62 0 -5 -5 -9 -10 -9 -6 0 -3 16 6 38 9 20 18 45 21 54 9 32 -16 19 -43
-22 -33 -50 -48 -42 -39 21 8 58 -6 65 -35 17 -11 -18 -20 -28 -20 -22 0 37
63 253 85 290 25 42 26 64 4 64 -9 0 -31 -43 -85 -168 -8 -18 -22 -36 -31 -39
-23 -9 -59 -51 -74 -85 -7 -18 -24 -31 -48 -39 -51 -16 -51 -17 -40 -46 10
-27 4 -63 -12 -63 -5 0 -8 10 -8 23 1 12 -6 45 -15 72 -9 28 -16 62 -16 77 0
15 -4 29 -9 33 -13 7 -26 -18 -40 -81 -13 -53 -44 -114 -60 -114 -5 0 -14 22
-21 50 -16 67 -40 68 -40 2 0 -27 -6 -57 -15 -68 -13 -18 -14 -16 -15 23 0 56
-20 146 -34 155 -28 19 -46 8 -46 -26 0 -19 4 -47 10 -61 10 -26 -5 -115 -19
-115 -4 0 -15 32 -25 71 -20 78 -53 126 -80 116 -22 -9 -31 -36 -19 -57 6 -9
9 -28 6 -43 -4 -22 -8 -25 -29 -17 -19 7 -30 4 -55 -18 -24 -20 -29 -22 -21
-7 22 38 39 55 56 55 9 0 16 7 16 15 0 10 -11 15 -35 15 -28 0 -37 -5 -50 -30
-8 -16 -29 -40 -45 -52 -17 -12 -30 -28 -30 -35 0 -7 -13 -27 -28 -45 -16 -18
-32 -44 -35 -58 -3 -14 -13 -34 -21 -45 -15 -19 -15 -19 -16 13 0 22 -5 32
-16 32 -12 0 -14 8 -8 45 l6 46 -27 -7 c-22 -5 -27 -4 -23 7 3 8 13 38 22 66
10 29 22 55 27 58 14 9 11 35 -4 35 -7 0 -19 -16 -26 -35 -15 -43 -36 -47 -27
-5 3 16 9 43 12 60 5 23 3 30 -9 30 -17 0 -22 -12 -33 -72 -3 -21 -10 -38 -14
-38 -8 0 -43 85 -56 135 -3 14 -10 28 -15 31 -5 3 -9 19 -9 35 0 41 -17 69
-40 69 -30 0 -25 -28 26 -175 25 -71 48 -148 51 -170 3 -22 12 -45 20 -52 13
-10 13 -18 -3 -70 -15 -49 -19 -54 -22 -30 -5 41 -24 28 -46 -32 -10 -29 -22
-47 -26 -41 -4 6 -14 8 -23 4 -13 -5 -19 1 -23 25 -9 43 -23 39 -30 -9 -6 -36
-8 -38 -20 -23 -19 25 -18 63 2 63 13 0 14 11 8 73 -6 64 -17 99 -27 86 -2 -2
-11 -49 -21 -104 -12 -72 -22 -104 -36 -115 -12 -10 -20 -30 -22 -60 -2 -33
-8 -46 -20 -48 -15 -3 -18 4 -18 47 0 61 -15 73 -34 29 l-14 -33 -1 52 c-1 28
-5 63 -11 77 -5 14 -5 28 -1 31 5 2 14 -15 20 -40 12 -48 41 -64 41 -22 0 12
3 32 6 44 4 15 0 23 -15 28 -11 3 -18 12 -15 20 3 7 0 24 -7 37 -7 13 -18 56
-24 97 -7 47 -16 76 -24 79 -11 4 -13 -4 -8 -34 12 -72 20 -179 12 -172 -4 4
-33 95 -65 203 -31 107 -60 198 -64 202 -14 15 -16 -10 -5 -107 10 -82 16
-104 29 -107 12 -3 25 -33 44 -105 14 -55 23 -104 20 -109 -10 -16 -24 -9 -24
11 0 12 -7 20 -16 20 -13 0 -15 -8 -12 -37 4 -27 -1 -49 -16 -75 -25 -46 -44
-48 -53 -8 -3 17 -12 30 -19 30 -8 0 -14 8 -14 19 0 31 -70 234 -87 253 -17
19 -53 25 -53 9 0 -5 11 -23 25 -40 20 -23 35 -68 64 -199 l39 -169 -30 -62
c-16 -33 -32 -61 -35 -61 -6 0 5 140 14 178 5 19 2 23 -12 20 -12 -2 -23 -23
-35 -68 -9 -36 -24 -81 -32 -100 l-16 -35 -19 45 c-11 25 -30 75 -42 112 -13
38 -28 68 -35 68 -24 0 -47 -37 -45 -71 2 -19 -5 -46 -15 -61 -25 -38 -29 -35
-9 7 19 39 14 51 -15 36 -17 -9 -19 -7 -14 15 3 15 -1 29 -8 34 -9 5 -4 22 19
66 17 33 31 67 31 77 0 34 -26 16 -59 -40 -19 -32 -55 -87 -80 -121 -42 -59
-46 -62 -49 -38 -2 16 12 54 38 101 41 74 41 96 0 53 -15 -16 -20 -18 -20 -6
0 34 40 167 69 228 33 70 39 100 18 100 -30 0 -80 -77 -92 -144 -5 -26 -14
-40 -30 -46 -13 -5 -26 -18 -30 -30 -5 -17 -12 -20 -31 -16 -22 6 -24 3 -24
-28 0 -19 -4 -38 -10 -41 -5 -3 -20 -28 -31 -56 -12 -27 -25 -49 -30 -49 -11
0 -1 44 17 82 18 35 18 58 0 58 -8 0 -17 -15 -20 -33 -3 -19 -13 -42 -20 -53
-14 -18 -15 -18 -25 8 -6 15 -13 50 -17 78 -4 29 -11 49 -17 47 -6 -2 -28 -64
-49 -137 -21 -74 -41 -136 -43 -139 -24 -24 -32 149 -11 249 15 72 11 100 -13
86 -14 -9 -34 -84 -25 -97 3 -6 -1 -41 -10 -77 -8 -37 -18 -78 -20 -92 -3 -14
-12 -34 -21 -45 l-17 -20 7 20 c4 11 11 52 15 90 5 39 12 80 16 93 19 65 -75
-56 -118 -151 -9 -20 -22 -37 -28 -37 -13 0 -13 56 1 81 15 29 7 45 -13 25 -9
-9 -20 -16 -24 -16 -9 0 3 74 22 133 15 44 17 47 30 30 7 -10 14 -42 14 -71 0
-45 3 -53 18 -50 24 5 27 42 7 105 -13 39 -15 69 -10 113 5 43 4 60 -5 60 -25
0 -67 -58 -86 -117 -10 -35 -22 -63 -26 -63 -4 0 -21 26 -38 58 -17 31 -39 73
-50 92 -11 19 -20 45 -20 57 0 13 -5 23 -11 23 -24 0 -106 -106 -167 -213
l-63 -112 7 123 c6 105 5 122 -8 117 -10 -4 -22 -46 -38 -131 -12 -69 -26
-122 -30 -117 -5 4 -27 67 -50 140 -34 111 -44 131 -58 126 -34 -12 -42 -25
-36 -58 3 -19 1 -35 -5 -39 -16 -11 -13 -48 8 -97 10 -24 22 -66 26 -92 4 -30
11 -47 18 -44 17 5 21 46 7 73 -7 12 -10 28 -8 36 6 18 37 -78 40 -127 3 -36
1 -40 -18 -38 -18 2 -23 -5 -29 -45 -4 -26 -7 -59 -7 -74 -1 -23 -3 -25 -19
-15 -33 21 -52 101 -46 189 5 65 4 78 -8 78 -8 0 -15 -9 -15 -20 0 -33 -17
-23 -34 20 -20 51 -20 59 4 111 11 24 20 54 20 66 0 33 -28 18 -45 -23 -8 -19
-19 -34 -25 -34 -13 0 -49 76 -50 103 0 28 -34 20 -53 -13 -18 -29 -18 -30 2
-30 24 0 28 -22 6 -40 -23 -19 -54 24 -55 76 0 70 -10 104 -31 104 -11 0 -19
-7 -19 -15 0 -8 -10 -20 -22 -26 -13 -7 -28 -19 -35 -28 -10 -14 -13 -12 -23
16 -12 33 -36 44 -46 20 -2 -7 2 -29 10 -48 11 -27 12 -39 3 -59 -17 -36 -71
-119 -78 -120 -6 0 -29 50 -49 103 -5 15 -16 27 -25 27 -21 0 -19 7 16 62 25
39 29 52 20 61 -18 17 -105 -80 -151 -167 -23 -42 -41 -66 -52 -66 -13 0 -20
-11 -24 -39 -3 -21 -15 -52 -26 -67 l-20 -29 6 35 c3 19 9 52 12 72 5 29 3 38
-7 38 -9 0 -23 -28 -38 -75 -13 -41 -27 -77 -31 -80 -4 -3 -11 37 -14 88 -10
145 -26 217 -48 217 -21 0 -23 -18 -7 -74 10 -37 -1 -117 -22 -156 -10 -20
-34 36 -44 105 -9 62 -30 105 -52 105 -13 0 -14 -7 -8 -43 12 -66 6 -180 -11
-198 -8 -8 -14 -28 -14 -43 l0 -28 -20 23 c-17 21 -21 22 -30 9 -8 -12 -10
-12 -10 5 0 12 -7 46 -15 78 -16 62 -12 90 14 82 13 -4 16 2 13 38 -3 31 4 55
23 91 29 55 20 87 -11 41 -39 -56 -73 -90 -81 -81 -4 5 -2 11 5 13 17 6 15 53
-2 53 -8 0 -35 -23 -60 -52 l-45 -52 15 65 c8 35 33 103 54 150 38 83 50 129
31 129 -23 0 -64 -48 -95 -113 -19 -40 -49 -88 -66 -107 l-31 -35 4 38 c5 62
-28 44 -103 -58 -22 -30 -44 -55 -49 -55 -9 0 -21 48 -21 87 0 14 -5 23 -11
21 -13 -4 -59 -116 -53 -132 2 -6 -2 -31 -10 -56 l-14 -45 5 59 c5 48 3 58 -8
54 -8 -2 -16 -15 -17 -29 -2 -13 -8 -28 -14 -34 -7 -7 -9 -2 -5 15 4 14 10 67
13 118 6 79 5 92 -8 92 -19 0 -28 -21 -28 -62 0 -44 -32 -168 -41 -162 -5 3
-13 24 -19 47 -6 23 -25 61 -41 84 -16 23 -29 47 -29 55 0 7 -9 33 -21 57 -15
34 -22 42 -31 33 -9 -9 -7 -34 10 -104 28 -118 46 -343 29 -372 -10 -19 -12
-17 -18 24 -4 25 -16 76 -28 113 -14 45 -19 82 -15 110 4 29 0 54 -13 82 l-18
40 -3 -120 c-2 -69 2 -141 9 -171 8 -38 9 -56 0 -72 -8 -15 -11 -274 -11 -916
l0 -896 6400 0 6400 0 0 1151 0 1152 -41 131 c-22 72 -45 135 -50 140 -5 6
-17 2 -29 -9 -27 -25 -23 -47 36 -223 44 -129 45 -135 33 -185 -17 -76 -49
-158 -59 -152 -4 3 -22 44 -40 93 -28 78 -31 94 -25 156 5 54 4 67 -7 64 -7
-3 -14 -13 -16 -24 -11 -71 -12 -72 -37 -24 -30 57 -30 68 0 140 14 33 25 69
25 80 0 37 -21 20 -46 -37 -14 -32 -31 -64 -36 -71 -6 -7 -12 -27 -14 -45 -3
-37 -46 -203 -55 -212 -9 -9 -27 91 -49 285 -25 214 -28 230 -46 230 -20 0
-18 -29 15 -285 16 -121 28 -221 26 -223 -1 -2 -13 30 -25 70 -96 322 -125
411 -137 415 -23 9 -27 -6 -14 -50 8 -23 15 -62 16 -87 2 -25 8 -61 14 -80 17
-53 14 -127 -5 -138 -13 -7 -14 -19 -3 -94 6 -47 8 -99 4 -114 -7 -29 -7 -29
-35 26 -16 30 -39 90 -51 132 -24 83 -54 122 -101 133 -37 9 -36 -4 5 -57 35
-46 67 -144 67 -205 0 -21 7 -63 15 -93 17 -64 19 -100 5 -100 -5 0 -10 16
-10 35 0 47 -26 47 -46 -1 -12 -28 -13 -43 -5 -67 6 -16 11 -44 10 -61 l-1
-31 -12 37 c-6 20 -14 40 -18 44 -5 4 -8 14 -8 23 0 9 -7 29 -15 45 -8 15 -15
39 -15 52 0 32 -31 94 -47 94 -7 0 -13 -6 -13 -12 0 -9 -4 -8 -10 2 -14 22
-12 30 5 24 16 -6 20 12 9 40 -8 20 -34 21 -34 1 0 -9 -9 -15 -25 -15 -20 0
-28 -9 -46 -49 -11 -27 -29 -57 -40 -67 -18 -16 -19 -16 -19 3 0 35 -21 83
-37 83 -10 0 -14 -9 -12 -27 2 -16 -7 -46 -19 -68 -19 -35 -21 -37 -21 -15 -1
36 21 111 63 219 57 147 26 161 -51 22 -57 -104 -92 -151 -112 -151 -14 0 -20
-10 -23 -38 -5 -31 -60 -132 -73 -132 -2 0 -1 16 2 35 7 41 -13 49 -23 9 -4
-14 -10 -22 -14 -17 -11 11 -22 88 -21 146 1 33 -3 47 -13 47 -17 0 -30 -33
-51 -130 -8 -41 -25 -86 -36 -100 l-21 -25 5 27 c2 16 -2 36 -9 45 -9 13 -11
43 -7 107 5 74 4 88 -8 84 -9 -3 -17 -27 -21 -64 -5 -32 -12 -72 -18 -88 -5
-16 -10 -44 -10 -63 0 -32 -27 -100 -36 -90 -2 2 3 20 11 40 21 51 20 87 -4
87 -10 0 -26 -10 -34 -23 -15 -21 -16 -21 -16 -2 -1 34 35 147 64 203 22 41
25 56 16 65 -10 9 -18 5 -39 -18 -15 -17 -34 -41 -43 -55 l-16 -24 -12 37 c-7
21 -18 36 -24 34 -13 -4 -13 -22 -2 -98 6 -40 4 -51 -16 -78 -12 -17 -26 -31
-30 -31 -10 0 -149 288 -149 311 0 22 -22 25 -39 5 -15 -18 8 -92 43 -139 36
-49 58 -124 43 -148 -20 -33 -30 -23 -60 63 -4 11 -12 15 -22 12 -20 -8 -19
-22 5 -67 21 -40 26 -77 10 -77 -5 0 -10 11 -10 25 0 47 -26 26 -40 -32 -12
-47 -19 -59 -37 -61 -17 -2 -24 -12 -29 -38 -4 -24 -10 -32 -17 -25 -7 7 -6
38 2 99 7 49 9 100 6 114 -4 17 0 42 13 71 20 46 49 76 39 41 -17 -55 -36
-189 -31 -210 9 -36 34 -30 34 9 0 17 14 83 30 146 16 63 26 119 23 124 -3 4
-14 1 -24 -9 -18 -16 -19 -16 -19 4 0 52 -48 1 -111 -118 -24 -44 -47 -80 -52
-80 -8 0 -4 94 6 155 1 6 -5 10 -13 10 -9 0 -16 -11 -18 -30 -2 -16 -10 -54
-19 -84 l-15 -55 -42 105 c-60 146 -63 151 -86 139 -29 -16 -26 -73 10 -170
24 -64 28 -86 19 -101 -7 -14 -7 -29 0 -50 16 -45 -6 -35 -29 14 -11 23 -24
61 -30 85 -6 23 -15 42 -19 42 -17 0 -45 56 -43 84 2 16 11 44 22 61 24 38 25
45 6 45 -19 0 -91 -79 -161 -177 -32 -46 -60 -82 -61 -80 -2 2 -11 70 -19 152
-9 81 -18 152 -21 157 -3 4 -12 8 -21 8 -13 0 -14 -8 -8 -52 8 -54 7 -149 -1
-157 -2 -2 2 -11 10 -20 15 -17 28 -143 14 -135 -4 3 -8 27 -8 54 0 42 -3 49
-22 52 -18 3 -26 19 -51 108 -28 103 -46 138 -64 127 -5 -3 0 -53 13 -114 12
-60 24 -147 28 -193 l6 -85 -38 112 c-21 62 -40 114 -43 117 -2 2 -14 0 -26
-5 -34 -12 -30 -59 16 -181 22 -58 43 -130 46 -159 l6 -54 -20 35 c-25 44 -61
153 -61 189 0 19 -9 30 -33 42 -28 14 -32 21 -35 63 -5 70 -29 58 -58 -28 -13
-38 -31 -77 -39 -86 -8 -9 -15 -29 -15 -43 0 -46 -52 -221 -61 -205 -8 15 -39
217 -59 396 -10 85 -15 102 -29 102 -16 0 -16 -10 0 -172 10 -95 21 -195 24
-223 4 -35 3 -46 -5 -35 -5 8 -10 24 -10 34 0 11 -11 47 -24 80 -14 34 -39
111 -56 171 -29 102 -51 147 -65 133 -3 -3 5 -68 19 -144 14 -77 26 -173 28
-215 2 -73 1 -78 -30 -113 -17 -20 -33 -36 -35 -36 -9 0 -47 100 -47 124 0 29
-41 81 -81 101 -41 22 -46 2 -12 -47 62 -89 63 -95 34 -190 -11 -35 -23 -79
-28 -98 l-9 -35 -36 70 c-20 39 -41 90 -47 113 -11 37 -15 42 -41 42 -30 0
-36 -11 -31 -62 3 -24 -22 -23 -44 2 -27 30 -42 25 -69 -28 -14 -26 -25 -39
-26 -30 0 26 -20 32 -36 12 -14 -17 -15 -15 -9 24 3 24 17 70 30 103 31 73 33
105 5 69 -27 -35 -25 -9 5 50 29 58 30 60 10 60 -9 0 -28 -20 -43 -45 -33 -56
-46 -57 -37 -5 5 28 3 40 -5 40 -7 0 -10 12 -9 28 2 15 0 33 -5 40 -11 18 3
231 17 257 9 18 18 219 20 455 1 52 -4 142 -11 200 -6 58 -11 179 -11 270 -1
91 -6 226 -12 300 -13 147 -16 118 52 645 44 347 48 363 121 443 34 37 77 88
96 114 l34 48 66 0 c37 0 98 -7 137 -15 64 -14 74 -19 120 -69 33 -36 75 -66
125 -91 69 -35 82 -38 155 -37 44 0 161 14 260 31 230 39 236 41 229 53 -8 13
-107 2 -264 -28 -155 -30 -228 -31 -280 -4 -58 29 -64 47 -34 97 30 52 13 59
-31 13 -16 -16 -35 -30 -43 -30 -7 0 -38 20 -69 45 -30 25 -65 45 -79 45 -46
0 -222 23 -234 30 -28 17 120 221 242 336 35 32 96 76 136 97 59 31 72 42 72
62 0 63 335 243 570 307 70 18 111 23 225 23 171 0 230 -18 357 -106 46 -32
104 -71 130 -86 l48 -28 0 -440 c0 -421 -1 -442 -20 -475 -11 -19 -31 -56 -44
-81 -25 -46 -25 -46 -86 -52 -35 -3 -75 -14 -97 -27 -20 -12 -77 -37 -127 -57
-124 -48 -194 -92 -259 -163 -92 -99 -132 -206 -143 -381 -12 -170 23 -288
106 -363 50 -45 84 -60 169 -76 39 -7 77 -21 97 -37 55 -41 143 -63 257 -64
56 0 134 -1 172 -1 59 -2 79 3 125 26 35 19 74 30 108 32 71 3 145 47 237 139
116 116 165 234 165 400 0 146 -47 275 -135 373 -87 97 -228 160 -329 148 -45
-5 -56 -3 -75 15 -20 19 -22 28 -16 67 6 40 4 48 -16 63 l-22 16 -5 478 -5
478 99 -8 c154 -13 213 -11 296 8 48 10 119 17 186 17 60 0 111 3 115 6 3 3 1
16 -5 29 -7 17 -6 30 6 53 23 45 3 49 -46 10 -37 -29 -52 -34 -122 -39 -45 -4
-148 -15 -230 -24 -125 -15 -165 -16 -240 -6 -130 16 -161 28 -232 93 -70 63
-114 81 -247 100 -97 14 -81 31 25 26 69 -3 72 -2 87 24 9 15 12 30 8 34 -13
13 -150 7 -524 -23 -59 -4 -61 -4 -56 16 8 30 59 70 155 121 46 24 101 56 124
72 25 18 77 38 136 53 96 24 194 59 214 76 7 5 60 7 125 3 100 -5 121 -3 173
15 42 15 83 21 142 21 141 0 207 35 268 142 27 49 74 87 162 131 28 14 71 41
96 60 25 20 63 38 86 42 39 6 40 8 31 32 -5 14 -7 34 -4 44 8 24 111 119 236
216 137 107 185 150 177 158 -11 11 -62 -21 -155 -97 -209 -172 -468 -358
-567 -407 -59 -30 -140 -82 -196 -126 l-95 -76 -68 6 c-52 4 -93 -1 -175 -19
-59 -14 -132 -27 -162 -30 -31 -2 -91 -19 -136 -39 -44 -18 -110 -39 -145 -46
-155 -29 -313 -99 -453 -199 -61 -45 -94 -78 -149 -155 -68 -93 -75 -99 -160
-143 -67 -35 -92 -43 -101 -35 -16 17 -20 257 -6 356 19 130 34 153 133 213
94 57 102 59 111 37 10 -27 36 -17 36 14 0 27 7 33 67 63 65 32 73 33 182 33
l115 0 40 43 c24 26 67 56 113 78 55 26 73 39 71 52 -6 33 -51 25 -105 -18
-60 -48 -123 -77 -123 -58 0 7 25 44 54 83 41 52 69 77 113 100 42 22 64 41
80 70 29 52 54 162 58 255 3 71 5 76 39 107 20 19 61 72 91 118 66 103 101
128 167 122 39 -3 61 -14 115 -56 37 -28 75 -51 85 -51 11 0 36 9 58 20 62 31
110 26 216 -24 100 -48 171 -92 221 -138 28 -27 36 -29 75 -23 128 19 346 100
378 140 14 17 13 18 -33 12 -27 -4 -105 -32 -174 -62 -177 -79 -168 -78 -260
-9 -74 56 -198 125 -273 152 -33 12 -34 14 -16 27 28 21 108 35 165 28 57 -7
67 6 26 33 -35 23 -100 14 -192 -25 -87 -38 -121 -39 -169 -6 -20 14 -47 25
-58 25 -12 0 -31 7 -42 15 -13 10 -47 14 -116 15 -82 0 -98 3 -98 16 0 22 18
53 57 98 37 44 40 58 18 100 -33 62 -20 93 81 196 81 83 112 140 144 265 26
103 25 127 -7 183 -26 45 -28 55 -31 192 -3 129 0 160 27 285 29 137 30 155
10 155 -27 0 -99 -159 -99 -217 0 -11 -9 -28 -21 -39 -39 -35 -40 -47 -12
-176 22 -100 27 -150 27 -263 1 -167 -8 -192 -109 -305 -47 -53 -73 -93 -101
-160 l-38 -89 -44 32 c-58 42 -62 51 -18 43 28 -5 36 -4 36 8 0 19 -50 48
-138 80 -108 38 -172 74 -172 97 0 4 14 10 30 14 17 4 53 22 81 41 28 20 87
51 131 69 65 28 92 46 139 96 33 33 59 65 59 70 0 15 -46 10 -93 -10 -24 -10
-81 -42 -126 -70 -45 -28 -104 -60 -132 -71 -78 -31 -114 -26 -220 29 -52 27
-121 60 -154 72 -33 12 -75 33 -93 46 -18 13 -86 51 -152 83 -75 38 -139 77
-174 109 -102 93 -148 102 -236 47 -30 -19 -68 -43 -84 -53 -50 -31 -44 -43
19 -43 83 0 120 -25 134 -91 6 -28 28 -85 48 -127 30 -64 53 -94 139 -177 96
-93 104 -104 119 -160 l16 -60 -26 -22 c-30 -27 -84 -43 -145 -43 -25 -1 -56
-7 -70 -15 -14 -8 -38 -14 -55 -15 -57 -1 -198 -41 -282 -80 -46 -21 -132 -72
-191 -113 -122 -85 -168 -110 -182 -102 -20 12 -9 61 36 158 l47 99 -18 77
-17 77 26 52 c40 78 35 119 -24 240 -66 135 -66 155 4 231 73 79 75 89 32 159
-20 31 -36 66 -36 76 0 10 16 36 35 57 39 44 42 63 18 113 -16 35 -16 35 20
94 20 32 46 85 58 118 16 44 35 72 75 110 55 51 66 74 38 74 -22 0 -50 -16
-116 -67 -52 -40 -58 -48 -58 -82 0 -26 -12 -58 -40 -104 -30 -49 -45 -90 -57
-150 -9 -45 -19 -86 -23 -90 -4 -5 -22 -1 -40 8 -39 20 -48 14 -26 -19 23 -36
20 -50 -21 -114 -21 -32 -45 -71 -53 -87 -22 -42 -91 -64 -201 -65 -107 0
-147 7 -154 30 -3 9 1 46 10 81 8 37 15 112 15 175 0 97 2 113 19 128 28 25
66 111 98 218 22 77 27 111 25 194 -1 88 3 115 33 213 32 107 36 115 102 187
85 93 99 120 114 214 15 101 23 118 117 245 108 148 154 240 150 303 -2 39 -7
48 -24 50 -21 3 -41 -32 -84 -148 -8 -19 -22 -48 -33 -64 -24 -35 -24 -36 -71
110 -24 72 -50 131 -75 165 -56 80 -61 92 -72 185 -9 80 -30 145 -47 143 -4
-1 -15 -3 -25 -6z m-207 -1632 c0 -27 -21 -81 -31 -81 -13 0 -11 54 2 84 13
28 29 26 29 -3z m-81 -213 c-6 -13 -26 -43 -44 -68 -32 -44 -33 -49 -44 -197
-6 -100 -17 -178 -31 -225 -21 -68 -21 -73 -5 -107 13 -28 15 -52 10 -130 -6
-91 -5 -102 30 -216 54 -179 68 -285 60 -435 -4 -69 -7 -165 -6 -214 3 -118
-17 -266 -35 -266 -25 0 -272 240 -278 270 -3 17 -25 44 -57 71 l-52 43 7 425
7 425 78 81 78 80 8 80 c4 44 14 107 24 140 15 56 20 62 81 104 36 25 90 71
120 103 30 32 56 58 58 58 1 0 -3 -10 -9 -22z m-1295 -181 c18 -29 81 -96 138
-149 106 -98 140 -144 131 -179 -17 -63 -164 37 -237 161 -59 101 -100 220
-77 220 6 0 26 -24 45 -53z m919 -158 c6 -46 4 -53 -21 -74 -36 -32 -42 -31
-42 7 0 33 36 118 49 118 5 0 11 -23 14 -51z m941 -98 c9 -10 19 -34 23 -54 5
-33 1 -40 -61 -106 -82 -87 -85 -109 -26 -230 44 -92 50 -121 21 -121 -41 0
-77 21 -96 57 -11 21 -28 39 -38 41 -17 3 -18 -1 -12 -30 10 -46 40 -74 109
-101 73 -28 86 -45 62 -82 -25 -38 -90 -65 -157 -65 -62 0 -68 5 -111 80 -36
63 -58 80 -117 89 -88 14 -117 61 -128 208 l-6 73 36 15 c26 11 73 15 162 15
181 0 195 8 264 148 23 45 45 82 50 82 4 0 16 -8 25 -19z m-411 -555 c40 -16
89 -71 122 -136 l25 -50 69 0 c60 0 71 -3 94 -25 l25 -26 -34 -127 c-20 -74
-34 -151 -34 -185 0 -75 -18 -116 -68 -156 -35 -27 -44 -30 -63 -21 -29 16
-69 108 -76 174 -4 40 0 70 17 121 22 67 22 69 5 123 -20 64 -21 107 -5 156 8
26 8 41 0 56 -15 28 -26 25 -39 -11 -20 -57 -24 -130 -11 -198 12 -63 11 -72
-9 -125 -25 -67 -27 -110 -5 -161 21 -51 16 -71 -13 -50 -36 26 -44 77 -29
193 15 112 11 143 -34 291 -11 35 -20 87 -20 117 0 51 1 54 25 54 14 0 40 -6
58 -14z m1627 -91 c-7 -8 -17 -15 -22 -15 -6 0 -5 7 2 15 7 8 17 15 22 15 6 0
5 -7 -2 -15z m-198 -14 c7 -6 -8 -29 -32 -48 -13 -10 -16 -6 -16 28 -1 36 1
39 20 33 11 -3 24 -9 28 -13z m346 -27 c47 -20 120 -58 162 -85 89 -59 170
-87 207 -70 52 24 63 16 63 -43 0 -50 -4 -59 -44 -106 -29 -34 -55 -81 -76
-137 -65 -172 -153 -223 -479 -278 -171 -29 -193 -41 -273 -146 -60 -78 -163
-258 -200 -346 -21 -51 -23 -53 -62 -54 -56 -1 -106 -21 -129 -51 -25 -34 -33
-129 -18 -222 11 -64 10 -79 -3 -105 -26 -50 -163 -118 -188 -93 -6 6 -16 61
-23 124 -24 207 -74 301 -220 415 -38 31 -70 60 -70 67 0 7 26 12 68 14 l69 3
76 66 c86 74 108 103 99 127 -11 28 -34 17 -70 -32 -39 -55 -129 -112 -177
-112 -38 0 -39 14 0 30 16 7 46 34 67 61 29 38 48 52 87 65 68 22 122 59 156
110 20 28 39 43 59 47 37 8 74 66 97 157 16 63 14 134 -4 152 -5 5 -17 6 -26
2 -16 -6 -17 -15 -11 -69 6 -60 -6 -109 -42 -170 -16 -27 -28 -13 -13 15 14
26 2 44 -23 34 -9 -3 -36 -46 -62 -94 -45 -89 -82 -130 -116 -130 -23 0 -27
14 -21 88 4 51 2 62 -10 62 -12 0 -16 -16 -20 -69 -7 -88 -23 -115 -124 -200
l-82 -70 -4 30 c-4 25 3 36 46 75 40 36 47 47 36 54 -11 7 -25 -1 -51 -26 -20
-20 -39 -32 -42 -27 -10 17 -47 160 -47 184 0 15 13 38 34 58 l35 34 -23 31
c-48 65 -40 78 85 130 40 17 109 61 175 113 142 112 178 127 349 153 77 11
175 29 218 39 43 10 87 17 97 14 11 -3 19 2 22 14 3 10 35 34 75 54 67 35 72
36 130 27 43 -6 67 -5 89 4 l29 12 -42 4 c-24 2 -43 7 -43 12 0 4 19 20 43 33
24 14 49 33 57 41 7 9 14 16 17 16 2 0 43 -16 91 -36z m-2748 -234 c43 -52 64
-61 74 -35 8 22 144 -69 152 -102 12 -46 -8 -114 -63 -220 -143 -275 -132
-244 -143 -388 -11 -141 -16 -175 -28 -175 -4 0 -30 39 -57 86 -67 115 -111
154 -212 188 -122 41 -138 68 -77 136 40 44 53 88 54 182 0 48 -3 58 -20 63
-27 9 -25 24 4 35 15 5 29 23 36 46 7 20 36 62 64 94 28 31 59 71 68 88 10 18
28 37 40 42 46 18 65 11 108 -40z m3544 -209 c10 -10 13 -22 8 -25 -12 -7 -54
23 -47 35 9 14 20 11 39 -10z m-3101 -153 c68 -94 176 -206 271 -283 31 -25
38 -39 47 -90 12 -65 16 -229 9 -395 -4 -101 -2 -110 35 -220 28 -84 40 -137
43 -197 6 -104 -9 -153 -89 -290 -42 -70 -62 -118 -69 -156 -9 -58 -31 -111
-52 -123 -7 -4 -27 -7 -45 -6 -44 3 -42 -12 7 -46 21 -15 42 -34 46 -42 3 -8
8 -54 11 -102 5 -73 3 -88 -9 -88 -21 0 -129 115 -176 188 -54 84 -58 114 -27
197 40 109 35 148 -37 268 -42 70 -65 87 -118 87 -27 0 -28 3 -39 63 -6 35
-11 68 -11 74 0 6 -26 53 -57 104 -56 91 -58 96 -61 175 -3 56 3 114 18 190
18 87 21 123 14 179 -17 155 -16 159 67 322 42 81 89 181 104 221 14 39 30 72
35 72 4 0 41 -46 83 -102z m532 -32 c0 -67 3 -79 28 -110 34 -44 34 -60 -2
-97 -35 -34 -51 -36 -76 -9 -16 18 -17 34 -12 152 3 73 9 141 12 151 7 16 10
16 29 4 18 -13 21 -24 21 -91z m84 7 c16 -55 14 -93 -5 -100 -23 -9 -34 14
-34 73 0 75 22 90 39 27z m-1849 -119 c30 -14 70 -37 88 -51 31 -23 39 -25
100 -19 78 7 118 -7 115 -41 -1 -11 9 -31 22 -43 32 -30 32 -63 -1 -89 -34
-27 -53 -26 -155 3 -94 27 -97 27 -169 -36 -44 -39 -45 -40 -51 -16 -4 12 -8
52 -8 88 -1 36 -6 85 -12 110 -23 106 -23 120 -3 120 11 0 44 -12 74 -26z
m1967 -26 c-3 -7 -5 -2 -5 12 0 14 2 19 5 13 2 -7 2 -19 0 -25z m1755 6 c40
-86 -104 -277 -308 -411 -146 -94 -218 -121 -378 -137 l-59 -6 5 48 c7 69 64
179 164 313 47 63 92 119 100 125 8 6 42 14 77 18 34 3 125 22 202 40 173 43
182 43 197 10z m-1772 -116 c11 -24 20 -49 20 -55 0 -20 -55 -15 -81 6 l-24
19 19 36 c11 20 25 36 33 36 8 0 23 -19 33 -42z m-1441 -88 c60 -28 116 -74
152 -126 30 -44 31 -64 4 -64 -8 0 -48 29 -90 65 -47 40 -86 65 -100 65 -30 0
-55 25 -55 56 0 30 27 32 89 4z m1404 -34 c64 -27 71 -44 78 -189 6 -108 15
-161 49 -292 46 -176 48 -227 10 -257 -26 -21 -58 -22 -131 -7 -72 16 -85 32
-92 120 -4 60 -14 91 -48 163 -39 82 -44 98 -47 181 -4 96 7 154 48 249 18 44
21 46 60 46 22 0 55 -6 73 -14z m-1701 -81 c54 -10 102 -23 108 -30 6 -7 15
-39 21 -71 6 -32 28 -90 50 -129 l39 -72 0 -134 0 -135 35 -54 c38 -61 41 -70
21 -70 -7 0 -35 25 -62 56 -26 31 -100 95 -163 143 -126 93 -257 213 -303 275
-41 56 -39 112 5 152 54 51 120 94 137 90 8 -3 59 -12 112 -21z m257 -40 c23
-8 82 -42 130 -76 l89 -61 8 -86 c13 -135 2 -198 -58 -334 -25 -54 -35 -68
-53 -68 -23 0 -47 22 -59 55 -4 11 -11 87 -16 169 l-9 150 -45 90 c-49 99 -61
138 -52 161 7 19 13 19 65 0z m1726 -142 c9 -16 46 -49 81 -76 89 -66 106
-102 114 -247 5 -96 10 -123 32 -165 24 -46 25 -57 20 -144 -6 -109 -5 -109
-179 -329 l-108 -137 -3 37 c-2 28 10 62 52 149 31 61 56 120 56 129 0 10 -10
43 -21 74 -21 53 -21 58 -5 99 9 23 16 46 16 50 0 4 -19 19 -41 33 l-42 26 7
104 c6 95 4 115 -23 227 -38 156 -45 193 -37 212 5 14 9 14 35 0 16 -8 37 -27
46 -42z m625 -113 c36 -19 34 -97 -6 -158 -13 -19 -18 -22 -25 -11 -15 25 -9
179 8 179 2 0 13 -4 23 -10z m-2014 -291 c7 -30 29 -90 49 -133 62 -132 50
-212 -30 -204 -65 7 -105 126 -87 263 19 145 45 173 68 74z m1065 -129 c27
-12 66 -20 101 -20 74 0 88 -19 95 -127 6 -102 -12 -188 -75 -345 -27 -68 -71
-187 -97 -265 -26 -79 -52 -143 -58 -143 -9 0 -29 21 -80 84 -22 27 -25 28
-70 18 -46 -9 -47 -9 -55 17 -4 14 -7 73 -7 131 0 111 11 145 70 225 42 55 65
113 65 160 0 25 11 71 24 103 13 31 27 85 31 120 4 34 8 62 10 62 1 0 22 -9
46 -20z m879 -89 c-1 -96 -24 -251 -43 -291 -36 -76 -123 -175 -193 -221 -38
-25 -101 -82 -141 -126 -69 -76 -75 -81 -133 -93 l-62 -13 -31 -66 c-23 -47
-41 -70 -61 -80 -27 -13 -31 -12 -48 9 -22 27 -23 81 -4 118 21 40 98 109 200
177 87 59 89 62 136 155 35 68 64 110 105 150 101 97 115 122 115 205 l0 73
67 51 c62 48 68 51 80 35 8 -10 13 -45 13 -83z m-1641 -147 c21 -26 44 -94 36
-102 -14 -14 -74 79 -75 116 0 20 17 14 39 -14z m-469 -9 c20 -24 6 -28 -15
-5 -10 11 -13 20 -8 20 6 0 16 -7 23 -15z m-536 -104 c7 -10 -32 -47 -40 -38
-7 7 14 47 26 47 5 0 11 -4 14 -9z m1637 -543 c76 -59 96 -128 54 -192 -50
-76 -145 23 -145 150 0 40 18 74 40 74 5 0 27 -15 51 -32z m-107 -735 c13 -27
31 -72 40 -102 17 -59 22 -151 7 -151 -10 0 -27 40 -37 85 -3 17 -17 58 -30
92 -24 61 -30 104 -17 116 10 11 11 10 37 -40z m2802 -166 c14 -27 24 -50 22
-51 -7 -7 -218 -72 -218 -68 0 5 27 50 88 146 l44 70 19 -25 c10 -13 30 -46
45 -72z m-505 -163 c38 -20 67 -40 63 -43 -11 -11 -219 -69 -225 -62 -8 8 -39
143 -39 170 0 21 1 20 66 -4 36 -13 97 -41 135 -61z m715 -122 c-3 -3 -12 0
-20 7 -11 9 -15 5 -20 -26 -16 -93 -16 -93 -35 -83 -16 8 -20 2 -31 -50 -12
-56 -29 -75 -45 -50 -3 6 -14 10 -24 10 -13 0 -23 -15 -36 -55 -9 -30 -20 -55
-24 -55 -4 0 -16 7 -27 15 -35 27 -52 18 -71 -36 -10 -28 -24 -54 -31 -57 -8
-2 -30 3 -49 12 -20 9 -37 16 -38 14 -1 -2 -10 -18 -19 -36 l-17 -33 -32 19
c-59 36 -72 36 -85 0 -22 -60 -25 -62 -70 -39 -22 11 -49 32 -60 46 l-21 26
-23 -40 c-13 -23 -27 -40 -33 -38 -5 2 -21 24 -34 50 -22 45 -25 47 -42 32
-16 -16 -19 -15 -35 17 -22 44 -21 44 -42 18 l-19 -23 -32 54 c-30 47 -35 51
-46 36 -11 -15 -17 -4 -49 84 -20 55 -36 104 -36 107 1 4 14 -19 31 -51 24
-46 33 -56 43 -48 11 9 18 0 35 -39 12 -27 25 -50 29 -50 4 0 16 14 27 30 20
30 35 39 35 20 0 -6 7 -27 16 -48 l15 -37 19 23 c10 12 20 22 23 22 3 0 17
-20 31 -45 15 -25 29 -45 31 -45 3 0 14 18 25 40 11 22 24 40 28 39 4 0 24
-22 45 -50 20 -27 41 -49 45 -49 5 0 19 23 32 50 l24 50 37 -36 c20 -20 42
-33 47 -30 6 3 18 29 27 56 9 27 20 52 25 55 5 3 20 -10 35 -29 41 -54 53 -53
77 4 22 54 34 59 79 33 15 -9 31 -14 34 -11 3 3 14 34 24 69 18 64 25 70 63
54 13 -5 19 2 28 37 18 71 18 70 39 58 36 -19 41 -12 41 51 0 56 2 60 20 54
16 -5 20 -2 20 18 0 14 3 40 8 58 5 25 8 5 10 -70 1 -57 0 -106 -2 -109z
m-447 -26 c25 -25 42 -48 39 -51 -3 -4 -31 1 -63 10 -31 9 -58 15 -59 13 -1
-1 -13 -20 -25 -40 -30 -50 -40 -48 -30 7 9 49 23 80 47 107 18 22 32 14 91
-46z m-4449 -957 c0 -12 -7 -19 -19 -19 -11 0 -22 -6 -25 -12 -3 -7 -3 0 0 17
9 46 44 58 44 14z m28 -52 c6 -7 25 -47 42 -88 46 -110 45 -106 30 -92 -9 8
-19 9 -31 2 -14 -7 -21 -5 -29 11 -6 11 -15 20 -21 20 -13 0 0 -72 16 -85 7
-6 9 -18 5 -29 -6 -17 -9 -16 -33 16 -15 19 -27 46 -27 59 0 14 -7 34 -15 47
-14 19 -14 24 0 51 8 17 15 41 15 54 0 22 16 47 31 47 4 0 11 -6 17 -13z m-94
-34 c-29 -135 -39 -163 -91 -240 -30 -46 -59 -85 -64 -89 -31 -19 22 126 93
254 48 87 71 114 62 75z m823 -95 c-3 -13 -11 -49 -17 -80 -14 -69 -30 -76
-30 -13 0 30 8 57 23 80 26 41 31 43 24 13z m-635 -93 c3 -14 1 -25 -3 -25 -5
0 -9 11 -9 25 0 14 2 25 4 25 2 0 6 -11 8 -25z m-691 -48 c-13 -13 -15 1 -4
30 7 17 8 17 11 -1 2 -10 -1 -23 -7 -29z m1096 -70 c-3 -39 -11 -75 -16 -80
-18 -18 -24 43 -11 116 10 56 14 67 23 52 5 -10 7 -48 4 -88z m150 42 c-5 -39
-13 -57 -20 -48 -8 9 6 89 15 89 7 0 8 -16 5 -41z m143 32 c0 -6 -4 -13 -10
-16 -5 -3 -10 1 -10 9 0 9 5 16 10 16 6 0 10 -4 10 -9z m-665 -62 c10 -28 15
-63 11 -79 -3 -17 -1 -32 6 -36 6 -4 8 -23 5 -49 -4 -25 -2 -46 5 -53 20 -20
4 -21 -19 -2 -20 16 -21 22 -11 50 7 21 7 34 1 39 -28 18 -44 72 -37 131 4 33
10 57 15 55 4 -3 15 -28 24 -56z m-200 21 c7 -23 -2 -43 -16 -35 -12 8 -12 55
0 55 5 0 12 -9 16 -20z m-493 -89 c-7 -31 -12 -71 -12 -89 0 -37 -19 -53 -27
-23 -3 12 -9 21 -14 21 -17 0 -9 61 18 126 24 59 28 64 37 44 6 -14 6 -41 -2
-79z m124 -71 c14 -52 15 -63 2 -102 -15 -45 -31 -54 -75 -43 -25 6 -26 8 -19
67 3 34 13 69 22 79 12 14 14 32 9 91 l-6 73 25 -53 c14 -29 33 -79 42 -112z
m1594 141 c0 -10 -8 -21 -17 -25 -10 -3 -24 -9 -31 -12 -10 -5 -10 2 2 25 18
34 46 42 46 12z m-1311 -28 c-5 -21 -9 -54 -10 -73 -1 -34 -1 -34 -10 10 -6
30 -5 54 2 73 17 40 28 33 18 -10z m-772 -25 c-3 -8 -6 -5 -6 6 -1 11 2 17 5
13 3 -3 4 -12 1 -19z m212 -33 l0 -20 -9 20 c-5 11 -9 27 -9 35 -1 13 0 13 9
0 5 -8 9 -24 9 -35z m1563 3 c-13 -13 -26 8 -17 30 6 16 7 16 17 -1 7 -13 7
-22 0 -29z m338 -17 c0 -37 -46 -131 -64 -131 -8 0 -16 10 -18 22 -3 25 -38
38 -38 15 0 -8 -6 -20 -14 -26 -7 -6 -16 -42 -20 -81 -5 -51 -11 -70 -21 -70
-35 0 -32 138 4 188 12 18 27 31 33 29 7 -1 15 15 18 36 4 20 10 41 15 45 4 4
4 -12 0 -35 -5 -35 -4 -43 8 -43 35 0 47 12 47 49 0 47 19 69 37 44 7 -9 13
-28 13 -42z m-1265 -40 c0 -49 -5 -64 -30 -97 -29 -38 -30 -38 -33 -14 -2 13
6 62 19 107 27 95 44 96 44 4z m-1270 47 c-12 -40 -24 -92 -30 -129 -3 -19
-12 -44 -20 -55 -13 -18 -14 -17 -14 11 0 17 -3 46 -6 65 -5 28 0 44 24 83 32
50 58 64 46 25z m582 -20 c-3 -7 -5 -2 -5 12 0 14 2 19 5 13 2 -7 2 -19 0 -25z
m6599 -25 c9 -55 7 -112 -7 -165 -10 -37 -29 -52 -29 -23 0 8 -4 15 -10 15 -5
0 -10 -18 -10 -40 0 -22 -4 -40 -10 -40 -15 0 -12 59 6 110 9 25 18 70 21 100
9 113 24 129 39 43z m-4591 -53 c13 -37 13 -41 -4 -50 -16 -8 -19 -4 -25 37
-3 25 -6 55 -6 67 1 19 2 19 11 4 5 -10 16 -36 24 -58z m4352 48 c-3 -8 -6 -5
-6 6 -1 11 2 17 5 13 3 -3 4 -12 1 -19z m-4707 -17 c0 -10 -7 -22 -16 -25 -25
-10 -28 0 -7 22 23 26 23 26 23 3z m636 -32 c-8 -19 -15 -26 -15 -17 -1 23 20
75 26 62 2 -7 -3 -27 -11 -45z m-866 26 c0 -8 -4 -15 -10 -15 -5 0 -7 7 -4 15
4 8 8 15 10 15 2 0 4 -7 4 -15z m4979 -135 c0 -15 -8 -2 -19 35 -11 33 -19 71
-19 85 1 16 8 3 20 -35 10 -33 19 -71 18 -85z m-4004 65 c-19 -59 -35 -80 -35
-46 0 22 41 113 48 106 2 -2 -4 -29 -13 -60z m-5935 38 c0 -10 -12 -26 -26
-37 l-26 -19 7 24 c6 19 31 47 43 49 1 0 2 -8 2 -17z m3200 13 c0 -3 -4 -8
-10 -11 -5 -3 -10 -1 -10 4 0 6 5 11 10 11 6 0 10 -2 10 -4z m480 -31 c0 -13
5 -36 12 -50 9 -21 8 -36 -6 -80 -25 -81 -40 -71 -32 22 3 42 6 91 6 110 0 20
4 32 10 28 6 -3 10 -17 10 -30z m-4426 -6 c9 -48 7 -95 -6 -124 -14 -31 -26
-32 -38 -1 -21 55 -21 91 0 124 25 40 36 41 44 1z m-1153 -22 c-8 -8 -11 -7
-11 4 0 20 13 34 18 19 3 -7 -1 -17 -7 -23z m7984 -7 c-4 -17 -9 -29 -12 -26
-3 2 -2 19 2 36 4 17 9 29 12 26 3 -2 2 -19 -2 -36z m-2845 -21 c0 -9 -9 -27
-20 -41 -10 -14 -27 -58 -37 -99 -14 -60 -18 -68 -21 -42 -2 18 2 41 8 53 6
11 8 29 5 39 -3 12 0 21 10 25 10 3 15 19 15 44 0 42 18 71 32 49 4 -6 8 -19
8 -28z m-3194 -10 c21 -41 43 -117 36 -123 -13 -14 -44 -4 -49 14 -7 25 -33
26 -33 1 0 -10 7 -32 15 -47 19 -36 12 -75 -23 -126 -30 -46 -37 -43 -23 9 13
46 13 53 2 53 -5 0 -14 -13 -21 -30 -7 -16 -17 -30 -22 -30 -6 0 -7 8 -3 18 8
19 22 84 31 150 4 23 11 45 15 48 5 3 9 16 9 30 0 33 17 64 35 64 8 0 22 -14
31 -31z m4214 -10 c0 -17 -10 -45 -22 -62 -20 -27 -22 -28 -28 -11 -7 20 27
104 42 104 4 0 8 -14 8 -31z m3680 -5 c-18 -21 -24 -10 -9 18 8 14 14 18 17
10 2 -7 -2 -19 -8 -28z m-3878 -16 c-10 -22 -11 -21 -11 12 -1 26 2 31 11 22
8 -8 8 -17 0 -34z m-1746 -15 c-10 -26 -18 -8 -9 23 5 21 8 24 11 11 2 -10 1
-25 -2 -34z m-4010 10 c-10 -10 -19 5 -10 18 6 11 8 11 12 0 2 -7 1 -15 -2
-18z m1620 -53 c-10 -82 -26 -109 -26 -44 0 64 -26 22 -50 -79 -23 -99 -45
-151 -60 -142 -21 13 -8 69 39 169 27 57 58 111 70 118 12 7 21 23 21 35 0 13
3 23 8 23 4 0 3 -36 -2 -80z m2790 37 c-3 -18 -13 -42 -21 -53 -14 -18 -14
-16 -8 16 8 48 22 84 29 77 4 -3 4 -21 0 -40z m406 21 c-7 -7 -12 -8 -12 -2 0
14 12 26 19 19 2 -3 -1 -11 -7 -17z m1980 -3 c0 -5 -5 -11 -11 -13 -6 -2 -11
4 -11 13 0 9 5 15 11 13 6 -2 11 -8 11 -13z m4421 -35 c4 -17 3 -19 -9 -9 -8
6 -14 18 -14 26 0 20 16 8 23 -17z m-11356 -42 c-2 -13 -4 -3 -4 22 0 25 2 35
4 23 2 -13 2 -33 0 -45z m1231 49 c6 -7 12 -34 13 -61 2 -38 -1 -52 -17 -65
-13 -11 -19 -29 -20 -61 -1 -58 -12 -102 -23 -96 -5 3 -14 41 -21 84 -11 71
-10 83 10 145 21 66 37 80 58 54z m8622 -83 c0 -30 -4 -54 -10 -54 -14 0 -50
74 -50 103 0 12 6 29 13 36 22 22 47 -23 47 -85z m-9752 48 c-12 -32 -28 -43
-28 -19 0 14 30 60 36 54 2 -2 -2 -18 -8 -35z m657 -31 c-21 -41 -25 -39 -13
7 17 63 21 69 25 45 2 -12 -3 -35 -12 -52z m10331 34 c-4 -14 -13 -25 -21 -25
-14 0 -14 4 0 31 19 35 30 32 21 -6z m-1381 -110 c-12 -66 -25 -113 -28 -105
-21 59 -25 105 -12 137 15 36 55 96 60 91 2 -2 -7 -57 -20 -123z m1632 71 c49
-59 54 -79 33 -122 l-20 -38 0 33 c0 55 -24 31 -30 -30 -6 -60 -10 -58 -35 20
-18 56 -17 113 5 166 9 21 14 26 18 15 3 -8 16 -28 29 -44z m-5414 19 c-7 -21
-13 -19 -13 6 0 11 4 18 10 14 5 -3 7 -12 3 -20z m-3343 -70 c-12 -96 -25
-114 -35 -48 -6 47 4 93 27 120 17 21 19 11 8 -72z m2071 58 c-12 -20 -14 -14
-5 12 4 9 9 14 11 11 3 -2 0 -13 -6 -23z m289 13 c0 -2 -8 -10 -17 -17 -16
-13 -17 -12 -4 4 13 16 21 21 21 13z m5236 -53 c-4 -32 -13 -76 -21 -98 l-14
-40 -1 57 c0 51 23 138 37 138 3 0 3 -26 -1 -57z m-9180 -9 c-4 -18 -11 -34
-17 -34 -9 0 -6 23 8 75 9 32 16 -1 9 -41z m95 -1 c-9 -15 -10 -13 -11 13 0
17 3 34 8 38 11 12 14 -32 3 -51z m8233 -61 c-8 -2 -14 -16 -15 -30 0 -15 -4
-36 -8 -46 -6 -17 -11 -13 -29 25 -26 54 -28 89 -6 132 l17 31 27 -54 c22 -43
25 -56 14 -58z m1742 51 c-11 -11 -26 10 -26 35 l1 27 15 -28 c9 -16 13 -31
10 -34z m82 -15 c-19 -27 -23 -29 -26 -15 -2 10 7 34 20 53 20 29 23 31 26 14
2 -11 -7 -35 -20 -52z m-10228 1 c-10 -37 -13 -41 -22 -25 -8 14 -6 28 7 55
22 45 30 27 15 -30z m-1123 -4 c-6 -44 -48 -138 -66 -149 -15 -10 19 113 46
167 20 39 27 33 20 -18z m10758 13 c-8 -40 -35 -73 -35 -45 0 19 27 77 36 77
3 0 3 -15 -1 -32z m-10389 -15 c-11 -11 -19 6 -11 24 8 17 8 17 12 0 3 -10 2
-21 -1 -24z m495 14 c-10 -9 -11 -8 -5 6 3 10 9 15 12 12 3 -3 0 -11 -7 -18z
m9131 -121 c-6 -11 -13 -34 -17 -51 -3 -16 -14 -41 -23 -55 -9 -14 -15 -36
-13 -49 2 -15 -1 -21 -8 -17 -6 4 -11 25 -11 46 0 42 37 248 48 265 12 19 35
-115 24 -139z m-8989 111 c3 -8 -4 -28 -15 -45 -35 -56 -54 -31 -20 27 19 34
27 38 35 18z m2336 -52 c0 -18 -1 -17 -14 5 -8 14 -14 34 -14 45 0 18 1 17 14
-5 8 -14 14 -34 14 -45z m6761 23 c0 -4 -7 -5 -15 -2 -8 4 -15 16 -15 28 1 21
1 21 15 2 8 -11 15 -23 15 -28z m-6600 11 c0 -6 -4 -7 -10 -4 -5 3 -10 11 -10
16 0 6 5 7 10 4 6 -3 10 -11 10 -16z m-2943 -66 c-2 -16 -4 -3 -4 27 0 30 2
43 4 28 2 -16 2 -40 0 -55z m4622 37 c-10 -27 -13 -30 -21 -16 -7 13 -5 23 8
37 23 25 27 19 13 -21z m6781 20 c0 -5 -2 -10 -4 -10 -3 0 -8 5 -11 10 -3 6
-1 10 4 10 6 0 11 -4 11 -10z m-10494 -27 c-10 -10 -19 5 -10 18 6 11 8 11 12
0 2 -7 1 -15 -2 -18z m1094 -19 c0 -48 -20 -124 -33 -124 -10 0 -4 120 8 152
11 27 25 11 25 -28z m7622 21 c3 -13 1 -22 -3 -19 -9 5 -13 44 -5 44 2 0 6
-11 8 -25z m1021 -32 c-6 -54 -17 -68 -27 -35 -6 17 21 99 28 91 2 -2 1 -28
-1 -56z m-10844 19 c28 -39 28 -44 9 -71 l-17 -25 -16 37 c-17 41 -20 87 -6
87 5 0 19 -13 30 -28z m10687 -64 c-9 -17 -16 -39 -16 -49 0 -10 -4 -21 -10
-24 -20 -12 1 108 25 145 18 26 18 -37 1 -72z m-1477 -15 c7 -43 15 -86 17
-95 7 -25 -13 -23 -21 2 -8 27 -25 25 -33 -2 -5 -19 -7 -16 -13 16 -3 21 -2
50 2 65 5 14 11 43 14 64 9 55 21 38 34 -50z m-8912 55 c-3 -8 -6 -5 -6 6 -1
11 2 17 5 13 3 -3 4 -12 1 -19z m8793 -55 c0 -26 -5 -43 -11 -43 -8 0 -10 -17
-6 -54 4 -43 2 -56 -10 -60 -13 -5 -15 7 -11 96 4 106 13 142 29 117 5 -8 9
-33 9 -56z m-8231 -30 c1 -14 -5 -23 -14 -23 -17 0 -18 5 -6 29 5 9 6 23 1 31
-4 7 -5 20 -2 29 5 12 8 8 13 -14 4 -16 7 -40 8 -52z m1467 9 c-12 -11 -16 6
-9 39 l8 34 3 -33 c2 -19 1 -36 -2 -40z m-1645 2 c-6 -13 -15 -24 -21 -24 -7
0 -8 6 0 19 5 11 10 30 10 43 1 21 1 22 11 4 8 -13 8 -25 0 -42z m226 34 c-3
-8 -6 -5 -6 6 -1 11 2 17 5 13 3 -3 4 -12 1 -19z m643 -67 c-14 -86 -35 -87
-25 -2 9 77 15 95 27 83 7 -7 6 -33 -2 -81z m1560 31 c0 -13 -3 -12 -20 3 -11
10 -20 28 -20 39 1 20 1 20 20 -3 11 -13 20 -30 20 -39z m7940 32 c0 -14 -4
-23 -10 -19 -5 3 -10 15 -10 26 0 10 5 19 10 19 6 0 10 -12 10 -26z m-9210 -3
c0 -10 -7 -24 -15 -31 -16 -13 -18 -8 -9 28 8 27 24 29 24 3z m139 -55 c-9 -8
-10 -7 -5 7 3 10 7 31 8 45 1 22 2 21 5 -7 3 -19 -1 -38 -8 -45z m-2029 15 c0
-17 -4 -33 -10 -36 -6 -4 -10 8 -10 29 0 20 5 36 10 36 6 0 10 -13 10 -29z
m1971 -18 c-9 -16 -10 -16 -11 -1 0 9 3 25 7 35 7 16 8 17 11 1 2 -10 -1 -25
-7 -35z m-844 5 c-3 -7 -5 -2 -5 12 0 14 2 19 5 13 2 -7 2 -19 0 -25z m1393
-13 c-14 -27 -20 -33 -20 -19 0 19 29 69 36 61 2 -2 -5 -21 -16 -42z m7308
-18 c-5 -52 -28 -45 -28 8 0 42 2 46 16 35 9 -8 14 -25 12 -43z m1459 31 c-3
-8 -6 -5 -6 6 -1 11 2 17 5 13 3 -3 4 -12 1 -19z m614 -21 c-13 -13 -15 1 -4
30 7 17 8 17 11 -1 2 -10 -1 -23 -7 -29z m-11830 -10 c-13 -13 -15 1 -4 30 7
17 8 17 11 -1 2 -10 -1 -23 -7 -29z m2669 13 c0 -19 -17 -36 -27 -26 -3 3 -2
17 1 31 7 28 26 25 26 -5z m7620 20 c0 -5 -4 -10 -10 -10 -5 0 -10 5 -10 10 0
6 5 10 10 10 6 0 10 -4 10 -10z m-7253 -78 c-16 -15 -17 -15 -17 5 0 12 3 29
7 39 6 16 8 15 16 -5 8 -17 7 -26 -6 -39z m6998 18 c-4 -17 -9 -29 -12 -26 -3
2 -2 19 2 36 4 17 9 29 12 26 3 -2 2 -19 -2 -36z m-1388 -12 c-3 -7 -5 -2 -5
12 0 14 2 19 5 13 2 -7 2 -19 0 -25z m-7477 0 c0 -7 -5 -20 -10 -28 -8 -12
-10 -9 -10 13 0 15 5 27 10 27 6 0 10 -6 10 -12z m7596 -45 c-10 -10 -19 5
-10 18 6 11 8 11 12 0 2 -7 1 -15 -2 -18z m301 -40 c-3 -10 -5 -4 -5 12 0 17
2 24 5 18 2 -7 2 -21 0 -30z m-5197 -27 c0 -8 -4 -18 -10 -21 -5 -3 -10 3 -10
14 0 12 5 21 10 21 6 0 10 -6 10 -14z m-1190 -33 c0 -32 -5 -28 -14 10 -4 19
-3 26 4 22 5 -3 10 -18 10 -32z"/>
<path d="M670 10497 c0 -24 32 -42 140 -82 63 -23 130 -40 170 -43 76 -6 90
-19 54 -48 l-26 -21 63 -6 c46 -4 68 -2 83 9 11 8 30 14 42 14 33 0 37 13 7
25 -24 10 -14 12 77 18 106 6 209 31 283 68 20 11 37 23 37 28 0 20 -37 16
-68 -7 -39 -30 -135 -42 -352 -45 -180 -3 -354 27 -437 74 -58 32 -73 35 -73
16z"/>
<path d="M4248 9963 c-16 -2 -28 -8 -28 -13 0 -16 -62 -81 -93 -96 -16 -9 -38
-13 -49 -11 -22 6 -90 -22 -83 -34 13 -20 -39 -13 -84 12 l-52 28 -40 -52
c-60 -75 -90 -142 -97 -210 -3 -34 -1 -58 4 -56 46 21 75 49 89 86 22 56 37
68 74 55 23 -8 31 -7 35 4 12 32 184 4 178 -29 -2 -10 4 -17 13 -17 8 0 15 5
15 11 0 8 16 10 50 6 30 -4 48 -2 45 3 -3 5 1 25 9 45 10 24 21 35 35 35 12 0
21 5 21 10 0 6 -13 10 -30 10 -23 0 -30 5 -30 19 0 25 37 51 72 51 19 0 38 11
57 33 26 29 35 32 88 33 75 2 128 21 112 40 -29 35 -195 54 -311 37z"/>
<path d="M10234 9753 c9 -27 -1 -29 -26 -6 -32 29 -28 10 10 -47 l37 -54 185
-68 c186 -68 267 -87 373 -88 44 0 62 -5 78 -21 19 -19 20 -22 4 -39 -9 -10
-30 -24 -46 -30 -49 -21 -34 -33 34 -28 44 4 72 0 95 -11 32 -15 36 -14 85 12
29 15 66 27 82 27 34 0 63 15 52 27 -5 4 -22 12 -40 18 -61 19 -24 30 108 31
72 1 146 6 165 13 19 6 52 11 73 11 42 0 255 67 275 87 7 7 20 13 28 13 15 0
74 39 74 49 0 3 -4 12 -9 20 -7 10 -13 11 -31 1 -20 -11 -22 -10 -17 4 10 26
-12 19 -38 -12 -13 -16 -52 -42 -87 -57 -56 -25 -78 -29 -233 -37 -93 -5 -215
-15 -270 -22 -129 -16 -265 -13 -335 7 -30 9 -117 26 -193 37 -217 33 -312 67
-394 143 -37 34 -44 38 -39 20z"/>
<path d="M5540 9180 c14 -25 25 -31 148 -74 57 -20 123 -36 145 -36 56 0 87
-9 87 -26 0 -7 -10 -19 -22 -26 -21 -11 -19 -13 32 -20 42 -6 68 -4 108 9 53
17 68 33 32 33 -11 0 -20 5 -20 10 0 6 34 10 83 10 136 0 304 47 328 91 14 26
-1 24 -63 -7 -44 -22 -74 -28 -227 -40 -136 -11 -198 -12 -274 -4 -125 14
-238 43 -293 75 -53 31 -79 33 -64 5z"/>
<path d="M769 8740 c33 -28 92 -128 98 -168 4 -24 17 -40 48 -62 28 -19 48
-44 59 -70 20 -49 20 -50 1 -50 -29 0 -14 -25 16 -27 18 -1 49 -12 71 -23 64
-33 80 -28 161 53 98 97 295 280 313 290 29 17 13 27 -21 13 -55 -23 -118 -71
-212 -159 -102 -96 -137 -116 -162 -93 -12 11 -20 13 -28 5 -8 -8 -19 0 -39
28 -82 112 -110 145 -159 192 -52 50 -123 91 -155 90 -10 0 -8 -6 9 -19z"/>
<path d="M2410 8169 c0 -5 11 -14 24 -21 14 -6 30 -23 36 -39 7 -15 23 -42 36
-61 14 -18 27 -49 30 -70 4 -24 13 -40 25 -43 10 -4 34 -25 54 -47 37 -44 47
-88 19 -88 -9 0 -14 -6 -11 -12 2 -7 10 -12 16 -10 7 1 41 -9 77 -24 78 -31
102 -27 142 23 17 21 104 105 195 188 91 82 164 151 162 153 -16 16 -219 -129
-284 -204 -19 -21 -51 -46 -70 -55 -31 -14 -39 -14 -58 -2 -15 10 -23 11 -28
3 -6 -10 -75 69 -75 85 0 14 -144 166 -175 185 -44 27 -115 51 -115 39z"/>
<path d="M1089 7265 c-96 -35 -190 -102 -249 -176 -22 -28 -40 -55 -40 -59 0
-5 15 -4 32 1 18 5 47 9 63 9 20 0 43 11 65 30 41 35 75 38 106 9 17 -16 26
-18 41 -11 14 8 29 2 70 -25 29 -19 66 -51 84 -70 28 -32 29 -37 14 -45 -15
-9 -14 -11 6 -26 16 -11 24 -12 27 -4 6 20 25 13 66 -25 21 -21 36 -30 33 -21
-4 11 5 27 29 48 28 24 39 28 54 20 26 -14 40 -13 40 4 0 7 -13 19 -30 26 -37
15 -38 25 -5 46 29 19 90 14 113 -10 12 -12 19 -12 48 0 50 21 86 17 135 -15
40 -26 139 -51 139 -35 0 4 -10 22 -21 41 -31 50 -109 108 -215 159 l-93 46
-65 -26 c-81 -33 -148 -34 -177 -5 -19 19 -29 21 -80 16 -54 -6 -59 -5 -82 22
-13 16 -29 42 -36 60 -15 34 -20 36 -72 16z"/>
</g>
</svg>
