<?xml version="1.0" standalone="no"?>
<!DOCTYPE svg PUBLIC "-//W3C//DTD SVG 20010904//EN"
 "http://www.w3.org/TR/2001/REC-SVG-20010904/DTD/svg10.dtd">
<svg version="1.0" xmlns="http://www.w3.org/2000/svg"
 width="1280.000000pt" height="1236.000000pt" viewBox="0 0 1280.000000 1236.000000"
 preserveAspectRatio="xMidYMid meet">
<metadata>
Created by potrace 1.15, written by Peter Selinger 2001-2017
</metadata>
<g transform="translate(0.000000,1236.000000) scale(0.100000,-0.100000)"
fill="#000000" stroke="none">
<path d="M4905 12353 c-98 -6 -209 -25 -262 -45 -147 -54 -171 -147 -117 -443
60 -334 22 -630 -113 -868 -103 -183 -257 -317 -433 -378 -98 -33 -254 -37
-390 -9 -171 34 -350 87 -605 177 -652 229 -875 271 -1540 288 -368 10 -1303
-17 -1418 -41 -15 -3 -27 -10 -27 -15 0 -17 106 -69 245 -120 77 -29 185 -74
240 -101 260 -129 472 -318 435 -388 -22 -40 -185 -109 -555 -234 -121 -41
-213 -76 -205 -79 8 -3 73 -10 145 -17 72 -6 173 -18 225 -25 269 -40 362
-100 1010 -655 294 -251 430 -382 459 -443 32 -67 27 -106 -30 -231 -122 -265
-165 -479 -190 -942 -22 -408 8 -1359 72 -2294 65 -960 148 -1413 356 -1939
101 -256 187 -420 236 -450 16 -11 22 -10 36 3 23 23 26 228 7 426 -25 258
-16 245 172 -256 66 -175 143 -376 171 -446 283 -709 739 -1676 918 -1946 46
-68 119 -149 128 -140 49 48 -125 820 -342 1518 -80 259 -105 353 -92 344 7
-4 119 -203 231 -414 25 -47 167 -319 316 -605 637 -1228 800 -1508 915 -1569
45 -25 63 -17 78 34 10 32 10 61 0 136 -29 220 -101 448 -296 929 -191 473
-305 781 -305 822 0 14 2 14 20 -2 47 -43 228 -329 515 -814 367 -622 541
-887 649 -990 l36 -35 25 24 c40 37 48 80 42 214 -8 182 -61 373 -177 641 -64
146 -125 301 -138 348 -8 28 -7 37 2 37 20 0 138 -140 371 -440 228 -294 396
-459 466 -460 65 0 68 135 8 350 -17 60 -119 359 -155 455 -4 11 35 -20 87
-69 52 -49 117 -104 144 -122 97 -64 193 -69 245 -14 69 74 50 209 -85 595
-114 328 -127 414 -81 536 46 123 73 291 111 697 57 601 123 996 220 1318 37
121 68 190 117 262 37 53 80 158 108 259 31 115 72 183 160 267 147 140 477
335 629 370 126 29 256 140 538 458 101 114 186 208 188 208 2 0 97 -36 211
-80 349 -135 625 -295 1150 -666 793 -560 1083 -721 1554 -863 313 -94 439
-97 685 -16 538 176 795 600 772 1270 -6 179 -18 249 -50 297 -84 124 -449
288 -1252 563 -932 320 -2013 735 -2213 852 -44 25 -82 74 -82 105 0 20 36 56
69 69 13 5 73 16 133 24 81 10 122 21 160 42 213 115 387 443 418 785 42 475
58 551 132 627 42 43 71 57 144 70 122 22 308 -24 530 -133 71 -35 343 -186
604 -335 466 -267 793 -440 873 -462 33 -9 47 -8 74 5 30 14 33 20 33 61 0 82
-77 203 -206 325 -38 36 -139 122 -224 191 -272 222 -294 249 -197 249 28 0
99 -7 157 -15 138 -19 300 -20 325 -1 17 12 17 17 5 45 -29 71 -237 246 -480
403 -130 84 -315 193 -500 293 -415 226 -712 416 -688 440 3 3 43 -4 90 -15
240 -57 764 -110 832 -84 46 18 -13 85 -144 164 -320 193 -1013 481 -1865 774
-901 311 -1145 405 -1145 446 0 19 75 21 250 6 408 -36 510 -12 344 81 -178
99 -661 237 -1229 353 -449 91 -804 171 -1245 280 -418 103 -678 148 -975 170
-128 9 -447 11 -570 3z"/>
</g>
</svg>
